<?xml version="1.0" encoding="UTF-8"?>
<svg version="1.1" xmlns="http://www.w3.org/2000/svg" width="532" height="550">
<path d="M0 0 C175.56 0 351.12 0 532 0 C532 181.5 532 363 532 550 C356.44 550 180.88 550 0 550 C0 368.5 0 187 0 0 Z " fill="#010101" transform="translate(0,0)"/>
<path d="M0 0 C1.12939896 -0.00551503 1.12939896 -0.00551503 2.28161407 -0.01114148 C4.81801888 -0.02220136 7.35438276 -0.02602605 9.89080811 -0.02983093 C11.70400626 -0.03609386 13.51720312 -0.0427405 15.33039856 -0.04974365 C20.26647151 -0.06716954 25.20253476 -0.07770979 30.13863087 -0.08594918 C33.22120394 -0.09109609 36.30377398 -0.09717196 39.38634491 -0.10346031 C49.0270959 -0.12251702 58.66783922 -0.136747 68.30860543 -0.14507228 C79.4443949 -0.15484677 90.5799857 -0.18116986 101.71570516 -0.22157317 C110.31789294 -0.25171511 118.92002371 -0.26653934 127.52226329 -0.26985329 C132.66228333 -0.27220602 137.80209126 -0.28119535 142.94205475 -0.30631447 C147.77821475 -0.32956649 152.61402255 -0.33383997 157.45022392 -0.32355309 C159.22475543 -0.32305691 160.9993041 -0.32940135 162.77378273 -0.34310913 C165.19800011 -0.36078741 167.62094795 -0.35374273 170.04516602 -0.34057617 C170.74615016 -0.35154542 171.44713431 -0.36251466 172.1693604 -0.37381631 C177.13910544 -0.30872369 179.9554017 1.0272097 183.77655029 4.14717102 C185.86717574 7.2831092 186.0138267 7.72413329 185.8036499 11.22651672 C185.75954483 12.05829941 185.71543976 12.89008209 185.66999817 13.74707031 C185.58158913 15.11494438 185.58158913 15.11494438 185.49139404 16.51045227 C185.38040827 18.51776843 185.26957627 20.52509309 185.15887451 22.53242493 C185.09593201 23.60575073 185.0329895 24.67907654 184.96813965 25.78492737 C184.70555297 30.39311856 184.48696476 35.00304821 184.2671814 39.6134491 C184.02910162 44.58643485 183.77899164 49.55879325 183.52923584 54.53120422 C183.40289643 57.05783031 183.2778868 59.58452326 183.15423584 62.11128235 C182.78980074 69.55396423 182.40362991 76.99492962 181.98388672 84.43470764 C181.84306046 86.95627286 181.70762871 89.47814397 181.57702637 92.0002594 C181.3797748 95.73418235 181.15756043 99.46583702 180.92889404 103.19795227 C180.84521324 104.8940992 180.84521324 104.8940992 180.75984192 106.62451172 C180.1194191 116.30629632 180.1194191 116.30629632 175.77655029 120.14717102 C172.8162212 121.62733557 170.15522365 121.29028958 166.8500824 121.30780029 C166.12911261 121.31288811 165.40814282 121.31797593 164.66532546 121.32321793 C162.23715172 121.33897792 159.80900781 121.34747675 157.38079834 121.35591125 C155.64479379 121.36544676 153.90879117 121.37533778 152.17279053 121.38555908 C146.4613064 121.41697573 140.74980755 121.43721263 135.03826904 121.45576477 C134.06732056 121.45906209 133.09637208 121.46235941 132.09600091 121.46575665 C122.94319581 121.49653582 113.7903875 121.52324991 104.63754559 121.54017544 C92.91990796 121.56209607 81.20272777 121.60409427 69.48527306 121.67361301 C61.25167957 121.7208084 53.0182097 121.74510293 44.78448516 121.75237232 C39.86401885 121.75733491 34.94406782 121.77247322 30.0237484 121.81211662 C25.39512071 121.84891825 20.76730398 121.85741417 16.13855743 121.84411049 C14.43937502 121.84416454 12.74015726 121.85450438 11.04110909 121.87586212 C8.72107892 121.90346782 6.4040221 121.89407373 4.08396912 121.87542725 C2.78591685 121.87965919 1.48786459 121.88389112 0.15047741 121.8882513 C-4.54494506 120.85690567 -5.54736415 119.06065575 -8.22344971 115.14717102 C-9.74229193 112.10948657 -9.54349125 108.89893281 -9.68829346 105.55830383 C-9.72584747 104.77405029 -9.76340149 103.98979675 -9.80209351 103.18177795 C-9.92600474 100.57146608 -10.04348309 97.96090522 -10.16094971 95.35029602 C-10.24641693 93.52253935 -10.33227928 91.69480112 -10.41851807 89.86708069 C-10.64569886 85.02922675 -10.86743277 80.19113759 -11.08807373 75.35298157 C-11.35302898 69.56792623 -11.62449327 63.78317202 -11.89599609 57.99842072 C-12.11298191 53.36275437 -12.32557963 48.72697332 -12.52813721 44.09065247 C-12.85616358 36.63519353 -13.19156953 29.18960889 -13.74688721 21.7467804 C-13.81770508 20.71494629 -13.88852295 19.68311218 -13.96148682 18.62001038 C-14.08803892 16.84289814 -14.23489603 15.06702212 -14.40924072 13.29396057 C-14.68383088 9.24984802 -14.36371546 6.79580275 -11.85235596 3.66767883 C-7.89086848 -0.1304635 -5.24742927 -0.00136275 0 0 Z " fill="#C6BCC2" transform="translate(178.22344970703125,208.8528289794922)"/>
<path d="M0 0 C0.99 0.495 0.99 0.495 2 1 C1.31035156 1.58265625 0.62070313 2.1653125 -0.08984375 2.765625 C-18.02901752 18.4162622 -28.82328671 38.42544347 -32 62 C-18.08247662 59.93700428 -6.22352632 54.61372692 2.8125 43.625 C5.95661709 39.37678598 8.12480183 34.92676289 10 30 C11.28051365 32.95615722 10.97087222 34.08017545 9.84765625 37.171875 C1.93454545 53.03272727 1.93454545 53.03272727 -6 57 C-6.33 57.99 -6.66 58.98 -7 60 C-2.57552471 59.48552613 0.27865725 58.41384395 4 56 C4.99 55.67 5.98 55.34 7 55 C8.08742694 52.78566059 8.08742694 52.78566059 9 50 C9.515625 48.88625 10.03125 47.7725 10.5625 46.625 C11.99307895 43.01745308 12.60752107 39.8462935 13 36 C13.66 36 14.32 36 15 36 C15.33 35.01 15.66 34.02 16 33 C16.42410156 33.78503906 16.84820312 34.57007813 17.28515625 35.37890625 C24.57483832 48.43624886 33.50729826 56.6259857 48 61 C52.31533541 61.84586309 56.63416157 62.47993147 61 63 C60.01 63.33 59.02 63.66 58 64 C58.40992188 64.56847656 58.81984375 65.13695312 59.2421875 65.72265625 C64.28744043 72.95257612 66.08614853 79.31841103 67 88 C68.69119256 79.46465667 69.33732332 71.25562619 69.3125 62.5625 C69.32861328 61.43779297 69.34472656 60.31308594 69.36132812 59.15429688 C69.37084453 42.58622772 64.69755485 27.08758189 53.06640625 14.91015625 C49.90660267 11.98927922 46.55919307 9.41381445 43 7 C43.66 6.67 44.32 6.34 45 6 C60.3329214 17.2731408 70.39098873 29.73124736 73.70703125 48.89208984 C75.35312628 60.73574359 73.68682204 72.45976095 72.0769043 84.21411133 C70.76442651 94.0391033 69.72146301 104.24271659 72 114 C70.68 114 69.36 114 68 114 C67.67 110.37 67.34 106.74 67 103 C66.34 103 65.68 103 65 103 C64.01 106.63 63.02 110.26 62 114 C59.36 114 56.72 114 54 114 C53.92850703 109.71042193 53.96382331 106.14470678 55 102 C55.08805944 99.32713687 55.04459189 96.67551348 55 94 C54.01 94 53.02 94 52 94 C51.5978125 95.299375 51.5978125 95.299375 51.1875 96.625 C50 100 50 100 48.5 102.875 C46.72904463 106.56449035 45.89381774 110.01219777 45 114 C44.67 114 44.34 114 44 114 C42.70298903 104.92092323 46.85791647 98.59441065 51.02539062 90.8515625 C52.8837764 87.32100196 54.42933355 83.66488837 56 80 C56.66 80 57.32 80 58 80 C58 81.65 58 83.3 58 85 C58.66 85 59.32 85 60 85 C59.91197575 83.12417287 59.8037879 81.24928728 59.6875 79.375 C59.60048828 77.80878906 59.60048828 77.80878906 59.51171875 76.2109375 C58.94686017 72.66655771 57.74519575 70.11608678 56 67 C55.8141333 67.56396484 55.6282666 68.12792969 55.43676758 68.70898438 C54.57278771 71.30971021 53.69277238 73.90474562 52.8125 76.5 C52.52052734 77.386875 52.22855469 78.27375 51.92773438 79.1875 C47.62147925 91.78213865 40.87689968 100.00673247 29.125 106.5 C23.21615896 109.1973524 18.40888739 110.52910872 12 109 C-1.63004864 103.78904633 -9.27234869 96.30733924 -15.6171875 83.3046875 C-16.80184105 80.4735663 -17.55543955 78.02073127 -18 75 C-19.32 75 -20.64 75 -22 75 C-24.56687367 71.1496895 -23.83288724 69.41430237 -23 65 C-23.99 65 -24.98 65 -26 65 C-25.66842387 74.64886548 -23.82195156 81.86477485 -19.1796875 90.3125 C-14.98661116 97.99148913 -12.9694054 104.06818017 -14 113 C-14.33 113 -14.66 113 -15 113 C-15.10957031 112.43152344 -15.21914062 111.86304688 -15.33203125 111.27734375 C-17.08518451 102.73962993 -20.61754899 95.67187078 -24.59765625 87.96484375 C-27.27022348 82.31448573 -28.24338046 77.89916449 -28.125 71.625 C-28.10695312 70.37976563 -28.08890625 69.13453125 -28.0703125 67.8515625 C-28.04710937 66.91054687 -28.02390625 65.96953125 -28 65 C-29.65 65 -31.3 65 -33 65 C-33.66 67.31 -34.32 69.62 -35 72 C-35.33 72 -35.66 72 -36 72 C-36.495 68.535 -36.495 68.535 -37 65 C-38.11901506 77.71769499 -35.31798683 87.22009232 -30.73852539 98.98706055 C-28.87856812 104.05659698 -28.90973127 108.67414497 -29 114 C-30.32 114 -31.64 114 -33 114 C-33.66 112.68 -34.32 111.36 -35 110 C-35.495 111.98 -35.495 111.98 -36 114 C-37.32 114 -38.64 114 -40 114 C-39.83628906 113.31550781 -39.67257813 112.63101563 -39.50390625 111.92578125 C-38.93552966 108.6256722 -38.90369233 105.53445931 -38.9375 102.1875 C-38.94652344 101.02605469 -38.95554688 99.86460937 -38.96484375 98.66796875 C-38.97644531 97.78753906 -38.98804688 96.90710938 -39 96 C-40.75098126 98.62647188 -42.38731308 101.28775382 -44 104 C-45 102 -45 102 -44.0625 98.3125 C-42.4308597 91.63263032 -42.83811136 84.82630436 -43 78 C-43.17015625 78.556875 -43.3403125 79.11375 -43.515625 79.6875 C-46.70725527 89.73774001 -50.39295526 98.62005495 -60 104 C-63.375 104.75 -63.375 104.75 -66 105 C-63.86410317 102.86410317 -61.72601371 100.733039 -59.5625 98.625 C-56.86322333 95.85988732 -54.43811569 92.99539928 -52 90 C-53.485 90.99 -53.485 90.99 -55 92 C-59.30676335 94.42744843 -62.08783951 94.70173721 -67 94 C-69.37479388 92.54285471 -71.00728179 90.99271821 -73 89 C-71.16963482 89 -69.33753371 89.04679903 -67.51171875 89.17578125 C-62.73422743 89.40705676 -59.80166576 89.45184798 -55.5625 87.0625 C-48.9325196 79.13886489 -48.01383031 70.61866439 -47.71044922 60.57788086 C-47.17458616 43.6277667 -44.5357304 28.5357304 -32 16 C-28.07334087 12.89268313 -24.06764164 9.91936003 -20 7 C-19.34 7.33 -18.68 7.66 -18 8 C-18.78503906 8.66644531 -19.57007813 9.33289063 -20.37890625 10.01953125 C-30.67539687 18.96501737 -40.15576094 29.88649243 -41.23828125 44.13671875 C-41.24840631 46.77260954 -41.1830555 49.37111967 -41 52 C-40.72027344 51.05640625 -40.44054687 50.1128125 -40.15234375 49.140625 C-33.7071634 28.18006405 -21.17372256 11.41258427 -1.77734375 0.6796875 C-1.19082031 0.45539063 -0.60429687 0.23109375 0 0 Z " fill="#2D2D2D" transform="translate(243,92)"/>
<path d="M0 0 C8.75995755 1.50965255 14.97400721 4.13706376 21 11 C24.20115716 15.64481627 24.81801519 19.15831101 24.66015625 24.73828125 C22.79518594 33.95277953 14.87023364 40.98162283 7.35546875 46.05859375 C-6.6102604 54.13888175 -21.66790346 60.15522371 -37.0625 64.875 C-38.19010742 65.22232178 -39.31771484 65.56964355 -40.47949219 65.92749023 C-49.19459225 68.56227383 -57.96853777 70.7346782 -66.83911133 72.77197266 C-78.35531242 75.46150016 -89.96972202 78.69341495 -100.921875 83.203125 C-103 84 -103 84 -106 84 C-109.73353242 77.06126522 -112.70021649 70.79870106 -114 63 C-109 59.25 -109 59.25 -107.38842773 58.04296875 C-104.28583227 55.71835477 -101.18836346 53.3872769 -98.09765625 51.046875 C-90.80144128 45.53141609 -83.46963562 40.1083754 -75.89453125 34.98046875 C-74.07116433 33.73290191 -72.27218499 32.44814026 -70.51171875 31.11328125 C-65.09482524 27.09972802 -61.74113791 26.35798687 -55 27 C-56.55459312 30.10918625 -59.20857701 30.66632581 -62.3125 32.125 C-69.30635408 35.51409621 -75.64693834 39.51360085 -82 44 C-82.90709717 44.63421875 -82.90709717 44.63421875 -83.83251953 45.28125 C-85.74631595 46.61969161 -87.65552695 47.96435683 -89.5625 49.3125 C-90.45678711 49.94345581 -90.45678711 49.94345581 -91.36914062 50.5871582 C-94.13335195 52.56369654 -96.64124924 54.55902318 -99 57 C-98.30664551 56.5373877 -97.61329102 56.07477539 -96.89892578 55.59814453 C-67.71809221 36.18124006 -67.71809221 36.18124006 -55 30 C-53.94522461 29.4745459 -52.89044922 28.9490918 -51.80371094 28.40771484 C-47.67252575 26.66329624 -43.86992564 26.57598276 -39.43359375 26.59375 C-38.63647476 26.58291382 -37.83935577 26.57207764 -37.01808167 26.56091309 C-33.63751729 26.51538667 -30.25703637 26.50359343 -26.8762207 26.48876953 C-24.39507253 26.47301924 -21.91455176 26.44001713 -19.43359375 26.40625 C-18.67719101 26.40927124 -17.92078827 26.41229248 -17.14146423 26.41540527 C-12.35876473 26.34802771 -9.04810439 25.56647525 -5 23 C-1.8066636 18.3312175 -1.31931008 13.61156788 -0.8125 8.125 C-0.73064453 7.34125 -0.64878906 6.5575 -0.56445312 5.75 C-0.36588325 3.83438471 -0.18148253 1.91730958 0 0 Z " fill="#FAFAFA" transform="translate(362,307)"/>
<path d="M0 0 C0.9284523 0.64874084 1.8569046 1.29748169 2.81349182 1.96588135 C7.72986009 4.75365406 12.44838064 4.5733943 17.98413086 4.54589844 C19.60963364 4.56140495 19.60963364 4.56140495 21.26797485 4.57722473 C24.83375016 4.60661598 28.39895691 4.60815119 31.96484375 4.609375 C34.44349752 4.62435904 36.92214131 4.64108666 39.40077209 4.65948486 C45.91253116 4.7031449 52.42415552 4.72315473 58.93603516 4.73822021 C65.58569332 4.75565773 72.23521268 4.79976558 78.88476562 4.83984375 C91.9231278 4.91513149 104.96146765 4.96619272 118 5 C117.03940896 6.12942988 116.07758404 7.2578104 115.11523438 8.38574219 C114.57974976 9.01422058 114.04426514 9.64269897 113.49255371 10.29022217 C110.63359006 13.56527528 107.34719816 16.24031327 104 19 C103.02417969 19.825 102.04835938 20.65 101.04296875 21.5 C83.85525942 35.74219871 64.62614169 47.20763853 41.71484375 46.3515625 C29.14243171 45.16174433 15.66634803 40.64158924 7 31 C1.67404433 24.14175081 -1.30053616 18.16014816 -1.1875 9.3125 C-1.18105469 8.19488281 -1.17460937 7.07726562 -1.16796875 5.92578125 C-1 3 -1 3 0 0 Z " fill="#FAFAFA" transform="translate(169,329)"/>
<path d="M0 0 C0.66 0 1.32 0 2 0 C3.19140625 1.5390625 3.19140625 1.5390625 4.5625 3.625 C9.03754198 9.81108745 14.92857204 13.34044713 22 16 C19.33440687 17.77706209 16.9719385 18.87548273 14 20 C16.86778176 20.11780001 16.86778176 20.11780001 19.0625 19.5 C23.36954055 18.76688672 27.64155257 18.92383296 32 19 C32 18.34 32 17.68 32 17 C33.65 17 35.3 17 37 17 C37.32537255 22.6718352 36.32936802 26.80909666 34.25 32.0625 C33.87101562 33.0844043 33.87101562 33.0844043 33.484375 34.12695312 C28.93948486 45.9550297 20.4680192 53.69145908 9.02734375 58.9140625 C2.55309986 61.23643644 -2.46631499 61.22470744 -8.77734375 58.44140625 C-21.93992164 52.07016707 -28.11613131 44.230394 -34 31 C-34.96070434 28.11788698 -35.10581883 26.30149956 -35.0625 23.3125 C-35.05347656 22.50425781 -35.04445312 21.69601563 -35.03515625 20.86328125 C-35.02355469 20.24839844 -35.01195312 19.63351563 -35 19 C-33.68 18.34 -32.36 17.68 -31 17 C-31 17.66 -31 18.32 -31 19 C-30.09121094 18.96519531 -30.09121094 18.96519531 -29.1640625 18.9296875 C-22.85124971 18.79371922 -17.13568071 19.53788034 -11 21 C-12.32 19.68 -13.64 18.36 -15 17 C-14.32453125 16.79246094 -13.6490625 16.58492187 -12.953125 16.37109375 C-6.72755709 14.3087779 -6.72755709 14.3087779 -2.4375 9.625 C-1.13346735 6.33656985 -0.34247649 3.51038405 0 0 Z " fill="#F6F6F7" transform="translate(260,141)"/>
<path d="M0 0 C0.33 0 0.66 0 1 0 C1.495 4.455 1.495 4.455 2 9 C2.66 7.35 3.32 5.7 4 4 C6.475 4.495 6.475 4.495 9 5 C9.01417969 5.87140625 9.02835938 6.7428125 9.04296875 7.640625 C9.51281478 19.37407713 13.11811124 27.98633827 18.9296875 38.01953125 C20.31371517 40.58048757 21.21128324 43.20364058 22 46 C21.54380388 39.73256718 20.03511835 35.31052862 17.0625 29.8125 C10.71975658 17.75107557 10.71975658 17.75107557 10.875 10.6875 C10.89304688 9.61886719 10.91109375 8.55023438 10.9296875 7.44921875 C10.95289063 6.64097656 10.97609375 5.83273438 11 5 C11.99 5 12.98 5 14 5 C13.979375 6.093125 13.95875 7.18625 13.9375 8.3125 C13.81455548 11.94384191 13.81455548 11.94384191 15 15 C16.32 15 17.64 15 19 15 C19.4125 16.05058594 19.825 17.10117188 20.25 18.18359375 C25.99977099 32.37538143 32.85813663 41.23133755 47.20166016 47.32470703 C53.26166264 49.60029309 57.9445303 48.99598253 63.765625 46.43359375 C75.50319442 40.7840411 82.51474013 34.46230185 87 22 C88.81537399 16.37577548 90.43049542 10.69696768 92 5 C95.85781752 9.90994957 97.26280223 12.91109763 97.125 19.25 C97.10695313 20.32765625 97.08890625 21.4053125 97.0703125 22.515625 C97.04710937 23.33546875 97.02390625 24.1553125 97 25 C96.34 25 95.68 25 95 25 C95 23.35 95 21.7 95 20 C94.34 20 93.68 20 93 20 C92.67 21.155 92.34 22.31 92 23.5 C90.18865566 29.05773458 87.48595495 34.12095952 84.69335938 39.23828125 C82.53101401 43.34552943 81.5477551 46.23289396 82 51 C82.17015625 50.443125 82.3403125 49.88625 82.515625 49.3125 C86.20820931 37.68478772 86.20820931 37.68478772 89 34 C91.12890625 33.28125 91.12890625 33.28125 93 33 C93.24091535 40.2274605 92.34495828 46.90294338 91 54 C93.64 54 96.28 54 99 54 C99.12375 52.9275 99.2475 51.855 99.375 50.75 C99.89643936 47.62136385 100.40088254 45.66519576 102 43 C102.66 43 103.32 43 104 43 C104.33 46.63 104.66 50.26 105 54 C108.01743181 54.75435795 110.11613874 55.13864864 113.12597656 55.20532227 C114.32676849 55.2352401 114.32676849 55.2352401 115.55181885 55.26576233 C116.83327789 55.29083107 116.83327789 55.29083107 118.140625 55.31640625 C119.46389801 55.3475779 119.46389801 55.3475779 120.81390381 55.37937927 C123.62585831 55.44464867 126.43790445 55.50365447 129.25 55.5625 C131.15886356 55.60570673 133.06771793 55.64932171 134.9765625 55.69335938 C139.65094826 55.80030687 144.32542602 55.90163785 149 56 C149 56.33 149 56.66 149 57 C88.94 57 28.88 57 -33 57 C-33 56.67 -33 56.34 -33 56 C-32.1121582 55.97494385 -31.22431641 55.9498877 -30.30957031 55.92407227 C-27.00703963 55.82878203 -23.70467541 55.72955793 -20.40234375 55.62768555 C-18.97465612 55.58444682 -17.54692046 55.54276415 -16.11914062 55.50268555 C-14.06365504 55.44471398 -12.00840872 55.38109825 -9.953125 55.31640625 C-8.09929199 55.26141968 -8.09929199 55.26141968 -6.20800781 55.20532227 C-3.62812342 55.04020181 -1.45644894 54.7535613 1 54 C1.33 52.35 1.66 50.7 2 49 C4 51 4 51 4 54 C5.32 54 6.64 54 8 54 C6.68914406 45.45643892 4.98606475 37.55683493 1.8125 29.5 C-1.92661285 19.80339079 -2.35510649 10.19897355 0 0 Z " fill="#0A0A0B" transform="translate(206,152)"/>
<path d="M0 0 C0.25394531 0.79664063 0.50789063 1.59328125 0.76953125 2.4140625 C2.53360911 7.84504377 4.39017551 12.91084225 7 18 C7 18.99 7 19.98 7 21 C4.7265625 22.5078125 4.7265625 22.5078125 1.625 24.125 C-14.64548588 33.2472041 -24.61557014 47.60815961 -31.05078125 64.80859375 C-32.60649354 68.40017644 -34.80995788 69.76697052 -38 72 C-39.32 72 -40.64 72 -42 72 C-41.97381592 70.80624756 -41.94763184 69.61249512 -41.9206543 68.38256836 C-41.82899542 63.88178845 -41.77233763 59.38108783 -41.7253418 54.87963867 C-41.70045752 52.94492647 -41.66653707 51.01030563 -41.62280273 49.07592773 C-41.37710628 37.9155275 -41.68555946 28.42262968 -45.91723633 17.99829102 C-46.99278626 15.01997563 -47.4680568 13.12226916 -47 10 C-45.79321289 8.20629883 -45.79321289 8.20629883 -44 7 C-41.83374023 6.6628418 -41.83374023 6.6628418 -39.30859375 6.69921875 C-37.90335449 6.69233032 -37.90335449 6.69233032 -36.46972656 6.68530273 C-34.96877441 6.68639038 -34.96877441 6.68639038 -33.4375 6.6875 C-23.6254166 6.51510049 -15.53553513 4.8132681 -6.421875 1.27734375 C-3 0 -3 0 0 0 Z " fill="#F8F8F8" transform="translate(246,372)"/>
<path d="M0 0 C0.33 0 0.66 0 1 0 C1 2.97 1 5.94 1 9 C1.94875 8.95875 2.8975 8.9175 3.875 8.875 C7 9 7 9 9 11 C7.02 10.67 5.04 10.34 3 10 C2.97421875 11.14597656 2.9484375 12.29195313 2.921875 13.47265625 C2.86555657 15.0026403 2.8082101 16.53258675 2.75 18.0625 C2.73582031 18.81466797 2.72164062 19.56683594 2.70703125 20.34179688 C2.46380139 25.96040657 1.3837583 29.45236511 -2 34 C-6.69531431 36.99203538 -10.69372993 37.36979622 -16.1171875 37.23046875 C-17.71093625 37.22836618 -19.30468754 37.22776607 -20.8984375 37.22851562 C-23.37127246 37.2141726 -25.84215574 37.18821987 -28.31445312 37.1340332 C-40.3421851 36.90469086 -48.87152791 38.74673754 -59.2387085 44.95106506 C-61.06105756 46.03636275 -62.9080926 47.06131828 -64.77075195 48.07568359 C-76.0365262 54.23371639 -86.58656095 61.51243144 -97 69 C-97.66 68.67 -98.32 68.34 -99 68 C-69.1625 43.3875 -69.1625 43.3875 -53 38 C-60.3109097 36.87524466 -64.05937437 39.53397271 -69.94140625 43.734375 C-70.95074219 44.48203125 -71.96007812 45.2296875 -73 46 C-73.87527344 46.62390625 -74.75054687 47.2478125 -75.65234375 47.890625 C-81.89310883 52.35769895 -88.00182407 57.00405791 -94.13183594 61.62109375 C-99.34017202 65.53298797 -104.61981769 69.32699093 -110 73 C-108.88060712 79.30930534 -107.0752921 84.29736516 -104.0234375 89.93359375 C-103 92 -103 92 -103 94 C-103.66 94 -104.32 94 -105 94 C-105.33 94.66 -105.66 95.32 -106 96 C-107.17538461 93.25343799 -108.34049752 90.50325878 -109.5 87.75 C-109.83386719 86.97269531 -110.16773438 86.19539063 -110.51171875 85.39453125 C-110.82753906 84.64042969 -111.14335937 83.88632812 -111.46875 83.109375 C-111.90864258 82.07248535 -111.90864258 82.07248535 -112.35742188 81.01464844 C-113 79 -113 79 -113 75 C-113.52094238 75.21205078 -114.04188477 75.42410156 -114.57861328 75.64257812 C-128.68473123 81.23463534 -140.8752497 82.99634594 -156 82 C-156 81.67 -156 81.34 -156 81 C-149.07 81 -142.14 81 -135 81 C-135.33 79.68 -135.66 78.36 -136 77 C-134.48986328 76.65001953 -134.48986328 76.65001953 -132.94921875 76.29296875 C-111.17007061 70.81736835 -94.57566405 57.64439757 -78.25585938 42.78540039 C-77.74883484 42.32393867 -77.2418103 41.86247696 -76.71942139 41.38703156 C-75.47934565 40.25831608 -74.23963543 39.12919904 -73 38 C-73.840687 37.99918285 -73.840687 37.99918285 -74.69835758 37.99834919 C-88.35373256 37.98336307 -102.00877763 37.94052732 -115.6639719 37.86790943 C-122.26764525 37.83362933 -128.87108698 37.80852776 -135.47485352 37.80444336 C-141.84874374 37.80016276 -148.22211138 37.77171847 -154.59583855 37.72656822 C-157.02664076 37.71358582 -159.45750548 37.70928813 -161.88833809 37.71384621 C-165.29535366 37.71874653 -168.70083864 37.69268174 -172.10766602 37.65942383 C-173.61278748 37.67236229 -173.61278748 37.67236229 -175.14831543 37.68556213 C-181.72197087 37.57810192 -185.02466398 36.33923107 -190 32 C-189.34 31.67 -188.68 31.34 -188 31 C-187.67 30.34 -187.34 29.68 -187 29 C-186.65033865 29.48686531 -186.3006773 29.97373062 -185.94042015 30.47534943 C-183.0236484 32.76715088 -180.62744558 32.38383825 -176.95327759 32.39440918 C-176.23145337 32.40050028 -175.50962916 32.40659139 -174.76593149 32.41286707 C-172.34070318 32.42955188 -169.91599676 32.42471361 -167.49072266 32.41992188 C-165.75456698 32.4272591 -164.01841619 32.43584431 -162.28227234 32.44558716 C-157.56114745 32.46784982 -152.84019684 32.47073143 -148.11902666 32.46883965 C-144.18008631 32.46872015 -140.24118316 32.47727585 -136.30225313 32.48561716 C-127.01007072 32.5048688 -117.71797814 32.50772884 -108.42578125 32.50097656 C-98.83549134 32.49433593 -89.24558606 32.51719697 -79.65537417 32.55429029 C-71.42598169 32.58496685 -63.19671306 32.5963495 -54.96726453 32.59245348 C-50.05026957 32.59038365 -45.13357376 32.59590097 -40.21663284 32.62034607 C-35.59211872 32.64257662 -30.96823051 32.64076634 -26.34371376 32.62041855 C-24.6461711 32.61700179 -22.94858661 32.62212622 -21.25110054 32.63640213 C-18.93356392 32.65454801 -16.6181612 32.64188348 -14.3006897 32.62145996 C-13.00393625 32.62217247 -11.70718281 32.62288498 -10.3711338 32.62361908 C-6.1183596 31.83690716 -4.64496451 30.35455901 -2 27 C-1.14219805 23.9334822 -1.14219805 23.9334822 -1.07421875 20.60546875 C-1.00009766 19.40341797 -0.92597656 18.20136719 -0.84960938 16.96289062 C-0.79611328 15.71701172 -0.74261719 14.47113281 -0.6875 13.1875 C-0.61466797 11.92228516 -0.54183594 10.65707031 -0.46679688 9.35351562 C-0.29034453 6.23619078 -0.13554013 3.11932744 0 0 Z " fill="#09090A" transform="translate(359,297)"/>
<path d="M0 0 C0.99 0.495 0.99 0.495 2 1 C1.31035156 1.58265625 0.62070313 2.1653125 -0.08984375 2.765625 C-17.88913093 18.29422122 -27.66005407 37.52603284 -32.2890625 60.48046875 C-32.52367187 61.31191406 -32.75828125 62.14335937 -33 63 C-33.99 63.495 -33.99 63.495 -35 64 C-34.67 59.05 -34.34 54.1 -34 49 C-34.66 49 -35.32 49 -36 49 C-39.76794343 67.06594304 -37.414745 80.84404827 -31.0859375 97.8359375 C-29.17190524 103.41279407 -28.90104601 108.16171485 -29 114 C-30.32 114 -31.64 114 -33 114 C-33.66 112.68 -34.32 111.36 -35 110 C-35.495 111.98 -35.495 111.98 -36 114 C-37.32 114 -38.64 114 -40 114 C-39.83628906 113.31550781 -39.67257813 112.63101563 -39.50390625 111.92578125 C-38.93552966 108.6256722 -38.90369233 105.53445931 -38.9375 102.1875 C-38.94652344 101.02605469 -38.95554688 99.86460937 -38.96484375 98.66796875 C-38.97644531 97.78753906 -38.98804688 96.90710938 -39 96 C-40.75098126 98.62647188 -42.38731308 101.28775382 -44 104 C-45 102 -45 102 -44.0625 98.3125 C-42.4308597 91.63263032 -42.83811136 84.82630436 -43 78 C-43.17015625 78.556875 -43.3403125 79.11375 -43.515625 79.6875 C-46.70725527 89.73774001 -50.39295526 98.62005495 -60 104 C-63.375 104.75 -63.375 104.75 -66 105 C-63.86410317 102.86410317 -61.72601371 100.733039 -59.5625 98.625 C-56.86322333 95.85988732 -54.43811569 92.99539928 -52 90 C-53.485 90.99 -53.485 90.99 -55 92 C-59.30676335 94.42744843 -62.08783951 94.70173721 -67 94 C-69.37479388 92.54285471 -71.00728179 90.99271821 -73 89 C-71.16963482 89 -69.33753371 89.04679903 -67.51171875 89.17578125 C-62.73422743 89.40705676 -59.80166576 89.45184798 -55.5625 87.0625 C-48.9325196 79.13886489 -48.01383031 70.61866439 -47.71044922 60.57788086 C-47.17458616 43.6277667 -44.5357304 28.5357304 -32 16 C-28.07334087 12.89268313 -24.06764164 9.91936003 -20 7 C-19.34 7.33 -18.68 7.66 -18 8 C-18.78503906 8.66644531 -19.57007813 9.33289063 -20.37890625 10.01953125 C-30.67539687 18.96501737 -40.15576094 29.88649243 -41.23828125 44.13671875 C-41.24840631 46.77260954 -41.1830555 49.37111967 -41 52 C-40.72027344 51.05640625 -40.44054687 50.1128125 -40.15234375 49.140625 C-33.7071634 28.18006405 -21.17372256 11.41258427 -1.77734375 0.6796875 C-1.19082031 0.45539063 -0.60429687 0.23109375 0 0 Z " fill="#EAEAEA" transform="translate(243,92)"/>
<path d="M0 0 C5.61 0 11.22 0 17 0 C17 1.98 17 3.96 17 6 C17.99157777 8.68001684 19.02638341 11.16488867 20.24609375 13.734375 C20.57666275 14.45361145 20.90723175 15.1728479 21.24781799 15.91387939 C22.30048513 18.19764971 23.36871101 20.47373707 24.4375 22.75 C25.15272585 24.2950951 25.86692959 25.84066376 26.58007812 27.38671875 C29.72062827 34.22659757 29.72062827 34.22659757 33 41 C35.15302926 36.29349331 37.28859035 31.57958569 39.40869141 26.8581543 C40.13153789 25.25479348 40.85902203 23.65351476 41.59130859 22.05444336 C42.64621551 19.74871824 43.68393367 17.43589274 44.71875 15.12109375 C45.04685669 14.41351425 45.37496338 13.70593475 45.7130127 12.97691345 C46.01332397 12.2967366 46.31363525 11.61655975 46.62304688 10.91577148 C46.88952026 10.32730942 47.15599365 9.73884735 47.43054199 9.1325531 C48.30098992 6.24070749 48.30098992 6.24070749 48 0 C52.62 0 57.24 0 62 0 C62 0.66 62 1.32 62 2 C60.89398438 3.03338501 60.89398438 3.03338501 59.765625 4.08764648 C56.33486134 7.3964968 54.67049542 11.29238279 52.75 15.59765625 C52.3694043 16.42776718 51.98880859 17.25787811 51.59667969 18.11314392 C50.38728023 20.75828668 49.19369783 23.41024055 48 26.0625 C47.1988971 27.81750516 46.39682233 29.57206703 45.59375 31.32617188 C41.56632851 40.15189823 37.63446391 49.00401694 34 58 C32.35 58 30.7 58 29 58 C28.62713867 57.18845459 28.25427734 56.37690918 27.87011719 55.54077148 C26.47113411 52.49987205 25.06928023 49.46032968 23.66552734 46.42163086 C23.06120039 45.11193348 22.45798692 43.80172166 21.85595703 42.4909668 C18.80141356 35.84239581 15.70003436 29.3198288 12 23 C11.31385105 21.39160785 10.66252552 19.76746616 10.0625 18.125 C6.60932385 8.88629854 6.60932385 8.88629854 0 2 C0 1.34 0 0.68 0 0 Z " fill="#0C0B0C" transform="translate(231,243)"/>
<path d="M0 0 C11.21742567 3.77913271 20.31310536 15.57452457 25.609375 25.8046875 C33.11008308 43.03946057 31.56538812 60.04516395 29.0769043 78.21411133 C27.76442651 88.0391033 26.72146301 98.24271659 29 108 C27.68 108 26.36 108 25 108 C24.67 104.37 24.34 100.74 24 97 C23.34 97 22.68 97 22 97 C21.01 100.63 20.02 104.26 19 108 C16.36 108 13.72 108 11 108 C10.92850703 103.71042193 10.96382331 100.14470678 12 96 C12.08805944 93.32713687 12.04459189 90.67551348 12 88 C11.01 88 10.02 88 9 88 C8.731875 88.86625 8.46375 89.7325 8.1875 90.625 C7 94 7 94 5.5 96.875 C3.72904463 100.56449035 2.89381774 104.01219777 2 108 C1.67 108 1.34 108 1 108 C-0.29701097 98.92092323 3.85791647 92.59441065 8.02539062 84.8515625 C9.8837764 81.32100196 11.42933355 77.66488837 13 74 C13.66 74 14.32 74 15 74 C15 75.65 15 77.3 15 79 C15.66 79 16.32 79 17 79 C16.88544319 77.08268082 16.75793742 75.1661325 16.625 73.25 C16.55539062 72.18265625 16.48578125 71.1153125 16.4140625 70.015625 C16.02175562 67.15844658 15.33587101 65.49797019 14 63 C14 62.01 14 61.02 14 60 C17.87245536 61.46886238 19.19903983 63.31621784 21 67 C22.69496828 71.99073993 23.45130583 76.78740534 24 82 C25.69119256 73.46465667 26.33732332 65.25562619 26.3125 56.5625 C26.32861328 55.43779297 26.34472656 54.31308594 26.36132812 53.15429688 C26.37085053 36.57579789 21.69030032 21.09882773 10.06640625 8.90625 C7.35302104 6.40316497 4.50251903 4.19405164 1.46875 2.09375 C0.9840625 1.7328125 0.499375 1.371875 0 1 C0 0.67 0 0.34 0 0 Z " fill="#F4F4F3" transform="translate(286,98)"/>
<path d="M0 0 C0.51305317 0.48677625 1.02610634 0.97355249 1.55470657 1.47507954 C4.86722521 3.54081422 7.23074345 3.3847806 11.12469482 3.39872742 C11.84273419 3.40537424 12.56077355 3.41202107 13.30057168 3.41886932 C15.70671008 3.43752263 18.11235223 3.43489254 20.51855469 3.43237305 C22.24326786 3.4413888 23.96797461 3.45171556 25.69267273 3.46325684 C30.37618763 3.4908749 35.05958112 3.50011787 39.74316692 3.50611091 C44.63727839 3.51548207 49.53129872 3.54168443 54.425354 3.56611633 C63.6935614 3.60981966 72.96175114 3.63834308 82.2300303 3.66143972 C92.78136521 3.68847085 103.3326086 3.73238363 113.88387823 3.77772844 C135.58920296 3.87062962 157.29455507 3.94228529 179 4 C179 4.33 179 4.66 179 5 C121.91 5 64.82 5 6 5 C6 5.66 6 6.32 6 7 C42.63 7 79.26 7 117 7 C115.71770404 12.12918384 113.58594339 14.76219052 109.4375 18 C106.9151292 19.80355594 106.9151292 19.80355594 105.8203125 22.2578125 C103.30932119 26.04046464 100.09228871 28.24442955 96.4375 30.875 C95.36918945 31.65955566 95.36918945 31.65955566 94.27929688 32.45996094 C88.91091214 36.38786959 83.49387652 40.24937276 78 44 C79.11939288 50.30930534 80.9247079 55.29736516 83.9765625 60.93359375 C85 63 85 63 85 65 C84.34 65 83.68 65 83 65 C82.67 65.66 82.34 66.32 82 67 C80.82461539 64.25343799 79.65950248 61.50325878 78.5 58.75 C78.16613281 57.97269531 77.83226562 57.19539063 77.48828125 56.39453125 C77.17246094 55.64042969 76.85664063 54.88632812 76.53125 54.109375 C76.23798828 53.41811523 75.94472656 52.72685547 75.64257812 52.01464844 C75 50 75 50 75 46 C74.47905762 46.21205078 73.95811523 46.42410156 73.42138672 46.64257812 C59.31526877 52.23463534 47.1247503 53.99634594 32 53 C32 52.67 32 52.34 32 52 C38.93 52 45.86 52 53 52 C52.505 50.02 52.505 50.02 52 48 C53.51013672 47.65001953 53.51013672 47.65001953 55.05078125 47.29296875 C76.82992939 41.81736835 93.42433595 28.64439757 109.74414062 13.78540039 C110.25116516 13.32393867 110.7581897 12.86247696 111.28057861 12.38703156 C112.52065435 11.25831608 113.76036457 10.12919904 115 9 C114.159313 8.99918285 114.159313 8.99918285 113.30164242 8.99834919 C99.64626744 8.98336307 85.99122237 8.94052732 72.3360281 8.86790943 C65.73235475 8.83362933 59.12891302 8.80852776 52.52514648 8.80444336 C46.15125626 8.80016276 39.77788862 8.77171847 33.40416145 8.72656822 C30.97335924 8.71358582 28.54249452 8.70928813 26.11166191 8.71384621 C22.70464634 8.71874653 19.29916136 8.69268174 15.89233398 8.65942383 C14.38721252 8.67236229 14.38721252 8.67236229 12.85168457 8.68556213 C6.27802913 8.57810192 2.97533602 7.33923107 -2 3 C-1.34 2.67 -0.68 2.34 0 2 C0 1.34 0 0.68 0 0 Z " fill="#504E50" transform="translate(171,326)"/>
<path d="M0 0 C24.01734111 -0.09342247 48.03465501 -0.16396903 72.05214119 -0.20724869 C83.20376788 -0.22787791 94.35528169 -0.25600549 105.50683594 -0.30175781 C115.2260155 -0.34161443 124.94511332 -0.36743019 134.66437232 -0.37635398 C139.81114245 -0.38157069 144.95767872 -0.39383951 150.10437393 -0.42292023 C154.94869869 -0.45007066 159.79269326 -0.4584457 164.63708687 -0.45243073 C166.41484814 -0.45353112 168.19262046 -0.46148723 169.97031593 -0.4768219 C172.39900142 -0.4967444 174.82644278 -0.49193155 177.25515747 -0.48101807 C177.95750586 -0.49266943 178.65985424 -0.5043208 179.38348591 -0.51632524 C184.33897185 -0.45619729 187.23154055 0.81436915 191 4 C191.875 7.25 191.875 7.25 192 10 C191.38125 9.195625 190.7625 8.39125 190.125 7.5625 C188.25835959 4.96125481 188.25835959 4.96125481 186 4 C183.54445085 3.89246977 181.11650437 3.84511016 178.6602478 3.84178162 C177.89491466 3.83684364 177.12958152 3.83190566 176.34105647 3.82681805 C173.76301777 3.8113954 171.18500407 3.80306957 168.60693359 3.79467773 C166.76429523 3.78510295 164.92165908 3.77509311 163.07902527 3.76467896 C158.06485494 3.73758048 153.05067514 3.71659773 148.03647184 3.69667697 C142.80071496 3.67484784 137.5649874 3.64744415 132.32925415 3.62062073 C122.40932434 3.57065219 112.48937829 3.52572883 102.56941664 3.48259836 C91.27815099 3.4332615 79.98691474 3.37833023 68.69567752 3.32291877 C45.46381244 3.20903487 22.23191916 3.10220982 -1 3 C-0.67 2.01 -0.34 1.02 0 0 Z " fill="#F3F1F3" transform="translate(171,209)"/>
<path d="M0 0 C0.33 0 0.66 0 1 0 C1.33 2.97 1.66 5.94 2 9 C2.66 7.35 3.32 5.7 4 4 C5.65 4.33 7.3 4.66 9 5 C9.01417969 5.87140625 9.02835938 6.7428125 9.04296875 7.640625 C9.47740552 18.48980275 12.31480303 26.54003103 17.8125 35.8125 C20.1380154 39.79494513 20.48507116 42.44033111 20 47 C19.34 47 18.68 47 18 47 C17.67 49.31 17.34 51.62 17 54 C18.485 54.495 18.485 54.495 20 55 C19 56 19 56 17.14233398 56.11352539 C16.35157471 56.10828857 15.56081543 56.10305176 14.74609375 56.09765625 C13.89208984 56.09443359 13.03808594 56.09121094 12.15820312 56.08789062 C11.26037109 56.07951172 10.36253906 56.07113281 9.4375 56.0625 C8.53580078 56.05798828 7.63410156 56.05347656 6.70507812 56.04882812 C4.46998686 56.03700225 2.23502563 56.0205222 0 56 C1.33203125 54.48046875 1.33203125 54.48046875 3 53 C5.6875 53.3125 5.6875 53.3125 8 54 C6.68914406 45.45643892 4.98606475 37.55683493 1.8125 29.5 C-1.92661285 19.80339079 -2.35510649 10.19897355 0 0 Z M20 50 C21 54 21 54 21 54 Z " fill="#080808" transform="translate(206,152)"/>
<path d="M0 0 C1.89355469 0.27587891 1.89355469 0.27587891 4 1 C5.34794797 3.83811063 6.33862874 6.39360139 7.25 9.375 C7.51304932 10.23061523 7.77609863 11.08623047 8.04711914 11.96777344 C10.37655622 20.20494063 10.60770324 27.85840597 10.14404297 36.35205078 C9.98168104 39.33675838 9.86617238 42.32159331 9.75390625 45.30859375 C9.537725 50.87430905 9.28215142 56.43726477 9 62 C6.525 62.495 6.525 62.495 4 63 C2.26970151 57.80613078 1.76049295 53.24185151 1.91015625 47.7578125 C1.93057977 46.18099269 1.95075433 44.60416964 1.97070312 43.02734375 C2.01407413 40.57651421 2.06247991 38.12591209 2.11645508 35.67529297 C2.29533845 26.90736393 2.42207517 19.24127664 -1 11 C-1.41687488 7.11955715 -1.24386818 3.73160454 0 0 Z " fill="#1F1F1F" transform="translate(195,382)"/>
<path d="M0 0 C2 1 2 1 3.5625 4.4375 C7.65762738 12.90177815 14.57588352 19.86711579 23 24 C23.74765625 24.36738281 24.4953125 24.73476562 25.265625 25.11328125 C31.97017617 28.08707411 38.7521422 29.13661882 46 30 C45.01 30.33 44.02 30.66 43 31 C42.67 31.99 42.34 32.98 42 34 C41.01 34.66 40.02 35.32 39 36 C39 35.01 39 34.02 39 33 C37.35 33 35.7 33 34 33 C34 33.66 34 34.32 34 35 C32.97519531 35.13277344 31.95039063 35.26554687 30.89453125 35.40234375 C29.5338426 35.58064088 28.17316615 35.75903123 26.8125 35.9375 C25.80219727 36.06801758 25.80219727 36.06801758 24.77148438 36.20117188 C21.14918834 36.67825477 17.57196415 37.23012035 14 38 C16.35380297 34.07699505 18.64464931 33.16142685 23 32 C21.865625 31.67 20.73125 31.34 19.5625 31 C10.59531798 27.57183838 5.35584879 20.78616301 0.99609375 12.515625 C0 10 0 10 0 6 C-0.66 6 -1.32 6 -2 6 C-2 5.01 -2 4.02 -2 3 C-1.34 3 -0.68 3 0 3 C0 2.01 0 1.02 0 0 Z " fill="#202020" transform="translate(258,125)"/>
<path d="M0 0 C0.66 0 1.32 0 2 0 C4.49617434 6.54910257 5.84155863 11.40758397 3 18 C0.07496816 24.08406623 -3.93619304 25.79733508 -10 28 C-8.68 29.32 -7.36 30.64 -6 32 C-12.93 31.01 -19.86 30.02 -27 29 C-27 28.34 -27 27.68 -27 27 C-30.0109362 29.0072908 -30.63016497 29.83884224 -32 33 C-32.33 30.69 -32.66 28.38 -33 26 C-32.01 25.75765625 -31.02 25.5153125 -30 25.265625 C-22.87680001 23.47467992 -16.43597346 21.64300385 -10 18 C-8.94039062 17.51466797 -8.94039062 17.51466797 -7.859375 17.01953125 C-5.16900749 15.54435075 -4.95865463 13.87596388 -4 11 C-3.484375 9.824375 -2.96875 8.64875 -2.4375 7.4375 C-1.37880408 4.90583583 -0.53395878 2.66979391 0 0 Z " fill="#E5E5E6" transform="translate(256,131)"/>
<path d="M0 0 C0.66 0.66 1.32 1.32 2 2 C2.99 2 3.98 2 5 2 C4.26013196 12.91305353 1.92031989 24.00087096 -6 32 C-9.94177242 35.20269009 -12.94689985 36.51875237 -18 37 C-15.86410317 34.86410317 -13.72601371 32.733039 -11.5625 30.625 C-8.86322333 27.85988732 -6.43811569 24.99539928 -4 22 C-4.99 22.66 -5.98 23.32 -7 24 C-11.30676335 26.42744843 -14.08783951 26.70173721 -19 26 C-21.37479388 24.54285471 -23.00728179 22.99271821 -25 21 C-23.16963482 21 -21.33753371 21.04679903 -19.51171875 21.17578125 C-14.73422743 21.40705676 -11.80166576 21.45184798 -7.5625 19.0625 C-2.78787279 13.35623821 -0.62636788 7.35982262 0 0 Z " fill="#E8E8E8" transform="translate(195,160)"/>
<path d="M0 0 C24.01734111 -0.09342247 48.03465501 -0.16396903 72.05214119 -0.20724869 C83.20376788 -0.22787791 94.35528169 -0.25600549 105.50683594 -0.30175781 C115.2260155 -0.34161443 124.94511332 -0.36743019 134.66437232 -0.37635398 C139.81114245 -0.38157069 144.95767872 -0.39383951 150.10437393 -0.42292023 C154.94869869 -0.45007066 159.79269326 -0.4584457 164.63708687 -0.45243073 C166.41484814 -0.45353112 168.19262046 -0.46148723 169.97031593 -0.4768219 C172.39900142 -0.4967444 174.82644278 -0.49193155 177.25515747 -0.48101807 C177.95750586 -0.49266943 178.65985424 -0.5043208 179.38348591 -0.51632524 C184.33897185 -0.45619729 187.23154055 0.81436915 191 4 C191.875 7.25 191.875 7.25 192 10 C191.4225 9.236875 190.845 8.47375 190.25 7.6875 C187.16075792 3.99757196 185.54556622 2.1766818 180.63421249 1.61523914 C179.26748898 1.5953219 177.90046663 1.59186466 176.53363037 1.60127258 C175.77883904 1.59462576 175.0240477 1.58797893 174.24638391 1.58113068 C171.71587689 1.56247026 169.18584144 1.56510797 166.65527344 1.56762695 C164.84189179 1.55861164 163.02851625 1.54828499 161.21514893 1.53674316 C156.28990703 1.50911995 151.36478059 1.49988142 146.43947124 1.49388909 C141.29311722 1.48451927 136.1468499 1.45831703 131.00054932 1.43388367 C121.25422548 1.39017664 111.50791844 1.36165549 101.76152635 1.33856028 C90.66606891 1.31153114 79.57069852 1.26761823 68.47530317 1.22227156 C45.65024928 1.12936507 22.82516809 1.05771183 0 1 C0 0.67 0 0.34 0 0 Z " fill="#E5E6E7" transform="translate(171,209)"/>
<path d="M0 0 C0.66 0.33 1.32 0.66 2 1 C1.01 2.485 1.01 2.485 0 4 C0 4.99 0 5.98 0 7 C-1.12389551 8.64935315 -2.3251601 10.24645501 -3.5625 11.8125 C-12.04570356 23.18360264 -17.68545404 35.80290365 -19 50 C-19.33 50 -19.66 50 -20 50 C-20.78129376 33.55810689 -18.88926937 21.08934624 -8 8 C-5.42414494 5.22982605 -2.76989212 2.57563994 0 0 Z " fill="#161616" transform="translate(221,102)"/>
<path d="M0 0 C0.66 0.66 1.32 1.32 2 2 C1.67 2.99 1.34 3.98 1 5 C0.34 5 -0.32 5 -1 5 C-0.67 3.35 -0.34 1.7 0 0 Z M-5 5 C-4.4658057 5.16173675 -3.9316114 5.32347349 -3.3812294 5.49011135 C-0.50517763 6.10595548 2.15678067 6.14076056 5.09967041 6.15821838 C6.9758606 6.17290161 6.9758606 6.17290161 8.88995361 6.18788147 C10.27331505 6.19378525 11.65667688 6.19959572 13.04003906 6.20532227 C14.49874141 6.21490387 15.957441 6.22491412 17.4161377 6.23532104 C21.37443461 6.26234556 25.33274341 6.2833684 29.29108143 6.30332303 C33.42843096 6.32519771 37.56574393 6.35257915 41.70306396 6.37937927 C49.53692271 6.42928611 57.37080177 6.47423239 65.20470023 6.51740164 C74.12363169 6.56679118 83.04252647 6.62170294 91.96142244 6.67708123 C110.3075809 6.79087043 128.65377398 6.89771615 147 7 C147 7.33 147 7.66 147 8 C86.94 8 26.88 8 -35 8 C-35 7.67 -35 7.34 -35 7 C-20.15 6.505 -20.15 6.505 -5 6 C-5 5.67 -5 5.34 -5 5 Z " fill="#2F2E31" transform="translate(208,201)"/>
<path d="M0 0 C0.33 0 0.66 0 1 0 C1.27263672 1.16015625 1.27263672 1.16015625 1.55078125 2.34375 C1.80214844 3.3853125 2.05351562 4.426875 2.3125 5.5 C2.67794922 7.03140625 2.67794922 7.03140625 3.05078125 8.59375 C3.94212572 12.08896419 3.94212572 12.08896419 5.5546875 15.60351562 C7.35908992 20.38549528 7.29484607 24.69736979 7.07421875 29.75 C7.04777786 30.64871826 7.02133698 31.54743652 6.99409485 32.47338867 C6.90700916 35.31632087 6.79762806 38.15787669 6.6875 41 C6.6241706 42.93875429 6.56230704 44.87755705 6.50195312 46.81640625 C6.3515781 51.5450001 6.18121692 56.27249175 6 61 C3.7522025 58.94766315 2.9977758 57.99332739 2 55 C1.95055882 52.37302507 1.95637791 49.77352085 2.0078125 47.1484375 C2.02534557 45.55860032 2.04225221 43.96875613 2.05859375 42.37890625 C2.0893941 39.88407762 2.12472683 37.38960463 2.17138672 34.89501953 C2.40494535 22.17133062 2.40494535 22.17133062 -1 10 C-1.36831374 6.5140368 -1.60141033 3.20282066 0 0 Z " fill="#EFEFF0" transform="translate(195,383)"/>
<path d="M0 0 C0.556875 0.226875 1.11375 0.45375 1.6875 0.6875 C1.749375 1.925 1.81125 3.1625 1.875 4.4375 C2.4407516 9.75725386 4.37233647 14.22838207 6.53125 19.0859375 C7.6875 21.6875 7.6875 21.6875 8.6875 24.6875 C8.0275 24.6875 7.3675 24.6875 6.6875 24.6875 C6.3575 25.3475 6.0275 26.0075 5.6875 26.6875 C4.51211539 23.94093799 3.34700248 21.19075878 2.1875 18.4375 C1.85363281 17.66019531 1.51976562 16.88289063 1.17578125 16.08203125 C0.70205078 14.95087891 0.70205078 14.95087891 0.21875 13.796875 C-0.07451172 13.10561523 -0.36777344 12.41435547 -0.66992188 11.70214844 C-1.3125 9.6875 -1.3125 9.6875 -1.3125 5.6875 C-1.83344238 5.89955078 -2.35438477 6.11160156 -2.89111328 6.33007812 C-16.99723123 11.92213534 -29.1877497 13.68384594 -44.3125 12.6875 C-44.3125 12.3575 -44.3125 12.0275 -44.3125 11.6875 C-37.3825 11.6875 -30.4525 11.6875 -23.3125 11.6875 C-23.6425 10.3675 -23.9725 9.0475 -24.3125 7.6875 C-22.55873047 7.19830078 -22.55873047 7.19830078 -20.76953125 6.69921875 C-19.221246 6.25819204 -17.67307486 5.81676462 -16.125 5.375 C-14.97161133 5.05499023 -14.97161133 5.05499023 -13.79492188 4.72851562 C-10.36610361 3.74254642 -7.56817848 2.8454715 -4.51171875 0.95703125 C-2.3125 -0.3125 -2.3125 -0.3125 0 0 Z " fill="#212122" transform="translate(247.3125,366.3125)"/>
<path d="M0 0 C-1.55459312 3.10918625 -4.20857701 3.66632581 -7.3125 5.125 C-14.30601123 8.51393007 -20.64864324 12.51149377 -27 17 C-27.89114502 17.62624268 -27.89114502 17.62624268 -28.80029297 18.26513672 C-39.44856416 25.07550919 -39.44856416 25.07550919 -48 34 C-48.66 33.67 -49.32 33.34 -50 33 C-49.67 32.34 -49.34 31.68 -49 31 C-49.66 30.67 -50.32 30.34 -51 30 C-29.73988112 14.26464734 -29.73988112 14.26464734 -21.01171875 8.1328125 C-19.1371716 6.80531219 -17.28142822 5.45030915 -15.45703125 4.0546875 C-10.0710557 0.06850938 -6.6992648 -0.63802522 0 0 Z " fill="#E3E2E4" transform="translate(307,334)"/>
<path d="M0 0 C3.64795937 6.04602032 2.60622569 13.84272055 1.32421875 20.51953125 C0.61096763 23.36915538 -0.14901537 26.18871148 -1 29 C-1.33 29 -1.66 29 -2 29 C-2 24.38 -2 19.76 -2 15 C-2.33 16.65 -2.66 18.3 -3 20 C-3.66 19.01 -4.32 18.02 -5 17 C-5.99 17 -6.98 17 -8 17 C-8.4021875 18.299375 -8.4021875 18.299375 -8.8125 19.625 C-10 23 -10 23 -11.5 25.875 C-13.27095537 29.56449035 -14.10618226 33.01219777 -15 37 C-15.33 37 -15.66 37 -16 37 C-17.29701097 27.92092323 -13.14208353 21.59441065 -8.97460938 13.8515625 C-7.1162236 10.32100196 -5.57066645 6.66488837 -4 3 C-3.34 3 -2.68 3 -2 3 C-2 4.65 -2 6.3 -2 8 C-1.34 8 -0.68 8 0 8 C0 5.36 0 2.72 0 0 Z " fill="#3B3B3B" transform="translate(303,169)"/>
<path d="M0 0 C11.21742567 3.77913271 20.31310536 15.57452457 25.609375 25.8046875 C30.9251177 38.01895022 31.54762003 49.85711933 31 63 C30.67 63 30.34 63 30 63 C29.67 58.05 29.34 53.1 29 48 C28.67 53.61 28.34 59.22 28 65 C27.67 65 27.34 65 27 65 C26.98541748 64.4016333 26.97083496 63.8032666 26.95581055 63.18676758 C26.40731112 43.00470208 24.70784141 24.26399804 10.06640625 8.90625 C7.35302104 6.40316497 4.50251903 4.19405164 1.46875 2.09375 C0.9840625 1.7328125 0.499375 1.371875 0 1 C0 0.67 0 0.34 0 0 Z " fill="#D1D1D1" transform="translate(286,98)"/>
<path d="M0 0 C0.33 0 0.66 0 1 0 C1 2.64 1 5.28 1 8 C1.66 8.33 2.32 8.66 3 9 C1.29166667 22.91071429 1.29166667 22.91071429 0 29 C-2.64 29 -5.28 29 -8 29 C-8.22615016 22.83740819 -7.44149898 17.48027281 -6 11.5 C-5.71382813 10.26636719 -5.71382813 10.26636719 -5.421875 9.0078125 C-4.95572696 7.00337593 -4.47897024 5.00141137 -4 3 C-3.67 3 -3.34 3 -3 3 C-3 7.95 -3 12.9 -3 18 C-1.56729218 11.98262715 -0.5864318 6.1575339 0 0 Z " fill="#ECEBEC" transform="translate(305,177)"/>
<path d="M0 0 C1.58246707 -0.08153933 3.16616273 -0.13943557 4.75 -0.1875 C6.07257813 -0.23970703 6.07257813 -0.23970703 7.421875 -0.29296875 C10.44671583 0.05076316 11.75583602 1.00227459 14 3 C13.01902344 3.47308594 12.03804688 3.94617188 11.02734375 4.43359375 C-5.57214645 12.53009672 -21.0614332 22.13558778 -36 33 C-36.66 32.67 -37.32 32.34 -38 32 C-8.1625 7.3875 -8.1625 7.3875 8 2 C5.36 1.67 2.72 1.34 0 1 C0 0.67 0 0.34 0 0 Z " fill="#232425" transform="translate(298,333)"/>
<path d="M0 0 C1.28051365 2.95615722 0.97087222 4.08017545 -0.15234375 7.171875 C-6.76755388 20.43124586 -14.48657559 28.01214936 -28.625 33.375 C-32.79829857 34.14783307 -36.77072889 34.17262331 -41 34 C-38.21903471 32.14602314 -35.69100469 31.12876302 -32.55419922 30.04711914 C-18.8106879 25.27731227 -9.26455371 18.71808085 -2.625 5.5625 C-1.74000334 3.71308389 -0.86150159 1.86047683 0 0 Z " fill="#DFDFE0" transform="translate(253,122)"/>
<path d="M0 0 C3 1.8125 3 1.8125 6 4 C6 4.99 6 5.98 6 7 C42.63 7 79.26 7 117 7 C117 7.99 117 8.98 117 10 C116.01 9.505 116.01 9.505 115 9 C113.54591839 8.90674911 112.08763811 8.87535161 110.63056946 8.87542725 C109.7123793 8.87286423 108.79418915 8.87030121 107.84817505 8.86766052 C106.83778168 8.86976028 105.82738831 8.87186005 104.78637695 8.87402344 C103.72443619 8.8721553 102.66249542 8.87028717 101.56837463 8.86836243 C99.25590063 8.86435112 96.94342265 8.86228292 94.63094521 8.86190033 C89.71622806 8.85849313 84.80164421 8.83713942 79.88697338 8.81666946 C70.72972597 8.77860758 61.57261867 8.74738418 52.4152832 8.74951172 C46.05207996 8.75029867 39.68936118 8.72693827 33.32628441 8.6876297 C30.90105555 8.67716299 28.47577082 8.67565053 26.05053139 8.68328094 C22.65335332 8.69290094 19.25764144 8.67172028 15.8605957 8.64355469 C14.86032349 8.65375137 13.86005127 8.66394806 12.82946777 8.67445374 C6.2617588 8.57693862 2.97099125 7.33414106 -2 3 C-1.34 2.67 -0.68 2.34 0 2 C0 1.34 0 0.68 0 0 Z " fill="#2C2D2D" transform="translate(171,326)"/>
<path d="M0 0 C1.8396044 2.26412849 3.66219885 4.5259102 5.35546875 6.90234375 C14.2681852 19.35147316 26.16604298 25.12891154 41 28 C41 28.33 41 28.66 41 29 C27.51784565 29.69204975 19.37373727 26.49591141 9.375 17.6875 C4.75435339 12.45887357 0.37013737 7.21767873 0 0 Z " fill="#D7D8D8" transform="translate(259,127)"/>
<path d="M0 0 C0.66 0 1.32 0 2 0 C2.02578125 0.67804688 2.0515625 1.35609375 2.078125 2.0546875 C2.59269116 10.49825039 4.76140921 16.92153738 8.8203125 24.31640625 C13.01600076 31.99274144 15.03040079 38.0698598 14 47 C13.67 47 13.34 47 13 47 C12.89042969 46.43152344 12.78085938 45.86304688 12.66796875 45.27734375 C10.91481549 36.73962993 7.38245101 29.67187078 3.40234375 21.96484375 C0.81946051 16.50409619 -0.24869522 12.18606592 -0.125 6.125 C-0.10695312 4.97257813 -0.08890625 3.82015625 -0.0703125 2.6328125 C-0.04710937 1.76398438 -0.02390625 0.89515625 0 0 Z " fill="#DFDFDF" transform="translate(215,158)"/>
<path d="M0 0 C0.33 0 0.66 0 1 0 C1.31688525 3.96106564 1.20852288 6.53762318 -0.4375 10.1875 C-3.79685002 13.87459149 -7.37367453 15.31949716 -12 17 C-10.68 18.32 -9.36 19.64 -8 21 C-14.93 20.01 -21.86 19.02 -29 18 C-26.78813162 15.78813162 -26.01308821 15.61102661 -23.04296875 15.03515625 C-22.25986328 14.87466797 -21.47675781 14.71417969 -20.66992188 14.54882812 C-19.02699582 14.22696456 -17.38376962 13.9066289 -15.74023438 13.58789062 C-11.33801773 12.68293045 -7.58269943 11.87967916 -4 9 C-2.57298182 6.7763302 -2.57298182 6.7763302 -1.6875 4.3125 C-1.36136719 3.50425781 -1.03523438 2.69601563 -0.69921875 1.86328125 C-0.46847656 1.24839844 -0.23773438 0.63351563 0 0 Z " fill="#424243" transform="translate(258,142)"/>
<path d="M0 0 C0.33 0 0.66 0 1 0 C1 2.97 1 5.94 1 9 C2.423125 8.938125 2.423125 8.938125 3.875 8.875 C7 9 7 9 9 11 C6.03 10.505 6.03 10.505 3 10 C2.97421875 11.14597656 2.9484375 12.29195313 2.921875 13.47265625 C2.86555657 15.0026403 2.8082101 16.53258675 2.75 18.0625 C2.72873047 19.19075195 2.72873047 19.19075195 2.70703125 20.34179688 C2.46436222 25.94745138 1.2341519 29.38657743 -2 34 C-4.75 35.4375 -4.75 35.4375 -7 36 C-7 34.68 -7 33.36 -7 32 C-6.20207031 31.37738281 -5.40414063 30.75476563 -4.58203125 30.11328125 C-0.04513567 25.93485643 -0.93321909 18.91009036 -0.6875 13.1875 C-0.61466797 11.92228516 -0.54183594 10.65707031 -0.46679688 9.35351562 C-0.29034453 6.23619078 -0.13554013 3.11932744 0 0 Z " fill="#1D1D1E" transform="translate(359,297)"/>
<path d="M0 0 C1.77117187 0.12568359 1.77117187 0.12568359 3.578125 0.25390625 C5.13539497 0.35709884 6.6926879 0.4599453 8.25 0.5625 C9.41595703 0.64661133 9.41595703 0.64661133 10.60546875 0.73242188 C11.35957031 0.78076172 12.11367188 0.82910156 12.890625 0.87890625 C13.58188477 0.9260376 14.27314453 0.97316895 14.98535156 1.02172852 C17.03811673 1.09212749 17.03811673 1.09212749 19.06933594 0.38256836 C21 0 21 0 24 2 C23.01 2 22.02 2 21 2 C20.67 2.99 20.34 3.98 20 5 C19.01 5.66 18.02 6.32 17 7 C17 6.01 17 5.02 17 4 C15.35 4 13.7 4 12 4 C12 4.66 12 5.32 12 6 C10.97519531 6.13277344 9.95039063 6.26554688 8.89453125 6.40234375 C7.5338426 6.58064088 6.17316615 6.75903123 4.8125 6.9375 C4.13896484 7.02451172 3.46542969 7.11152344 2.77148438 7.20117188 C-0.85081166 7.67825477 -4.42803585 8.23012035 -8 9 C-5.64619703 5.07699505 -3.35535069 4.16142685 1 3 C0.67 2.01 0.34 1.02 0 0 Z " fill="#2F2F31" transform="translate(280,154)"/>
<path d="M0 0 C0.66 0.33 1.32 0.66 2 1 C1.21496094 1.66644531 0.42992187 2.33289063 -0.37890625 3.01953125 C-9.9090116 11.30090603 -16.54995009 19.62040913 -20 32 C-20.33 32 -20.66 32 -21 32 C-21 30.35 -21 28.7 -21 27 C-21.66 27 -22.32 27 -23 27 C-20.12776644 15.51106575 -9.54292872 6.36195248 0 0 Z " fill="#D7D7D7" transform="translate(223,99)"/>
<path d="M0 0 C3.84478875 1.45836815 5.1822915 3.36458299 7 7 C8.21850122 11.06408123 8.11080731 15.04354812 8.0625 19.25 C8.05798828 19.99507812 8.05347656 20.74015625 8.04882812 21.5078125 C8.03709246 23.3385764 8.0191585 25.16929873 8 27 C7.34 27 6.68 27 6 27 C5.81824219 25.9378125 5.63648438 24.875625 5.44921875 23.78125 C4.17326518 16.54057721 2.81034792 9.82513067 0 3 C0 2.01 0 1.02 0 0 Z " fill="#F8F8F8" transform="translate(300,158)"/>
<path d="M0 0 C0.66 0.33 1.32 0.66 2 1 C2 1.99 2 2.98 2 4 C-0.609375 5.90234375 -0.609375 5.90234375 -4 8 C-6.09557818 9.50391618 -8.17902557 11.02487953 -10.25 12.5625 C-11.80460937 13.70912109 -11.80460937 13.70912109 -13.390625 14.87890625 C-16.1554176 16.91271895 -16.1554176 16.91271895 -18 20 C-18.66 19.67 -19.32 19.34 -20 19 C-19.67 18.34 -19.34 17.68 -19 17 C-19.66 16.67 -20.32 16.34 -21 16 C-20.43490723 15.58637207 -19.86981445 15.17274414 -19.28759766 14.74658203 C-16.73208717 12.87450369 -14.17852462 10.99978604 -11.625 9.125 C-10.73554688 8.47402344 -9.84609375 7.82304687 -8.9296875 7.15234375 C-7.65351563 6.21455078 -7.65351563 6.21455078 -6.3515625 5.2578125 C-5.56604004 4.6817627 -4.78051758 4.10571289 -3.97119141 3.51220703 C-1.91877062 2.00586012 -1.91877062 2.00586012 0 0 Z " fill="#D6D5D7" transform="translate(277,348)"/>
<path d="M0 0 C0.33 0 0.66 0 1 0 C1.33 3.96 1.66 7.92 2 12 C2.33 12 2.66 12 3 12 C3 20.25 3 28.5 3 37 C-0.34590925 33.65409075 -0.99003081 32.46188658 -1.02172852 27.8137207 C-0.97459717 26.53070068 -0.92746582 25.24768066 -0.87890625 23.92578125 C-0.85529526 23.2419487 -0.83168427 22.55811615 -0.80735779 21.8535614 C-0.7308855 19.67298774 -0.64679119 17.49278405 -0.5625 15.3125 C-0.50926281 13.8327003 -0.45652252 12.35288262 -0.40429688 10.87304688 C-0.27529303 7.24847183 -0.13945273 3.62418977 0 0 Z " fill="#B0B0B1" transform="translate(198,407)"/>
<path d="M0 0 C0.33 0 0.66 0 1 0 C1.02917228 3.22914752 1.04685663 6.45826083 1.0625 9.6875 C1.07087891 10.59951172 1.07925781 11.51152344 1.08789062 12.45117188 C1.09111328 13.33740234 1.09433594 14.22363281 1.09765625 15.13671875 C1.10289307 15.94842529 1.10812988 16.76013184 1.11352539 17.59643555 C0.9929791 20.14864673 0.559949 22.51026137 0 25 C1.32 24.67 2.64 24.34 4 24 C4 24.66 4 25.32 4 26 C1.36 26 -1.28 26 -4 26 C-4.22615016 19.83740819 -3.44149898 14.48027281 -2 8.5 C-1.71382813 7.26636719 -1.71382813 7.26636719 -1.421875 6.0078125 C-0.95572696 4.00337593 -0.47897024 2.00141137 0 0 Z " fill="#C6C6C7" transform="translate(301,180)"/>
<path d="M0 0 C0.9188953 2.50340753 1.10429229 3.69565765 0.22729492 6.25488281 C-0.18415771 7.06280273 -0.59561035 7.87072266 -1.01953125 8.703125 C-1.46490234 9.60160156 -1.91027344 10.50007812 -2.36914062 11.42578125 C-2.84544922 12.35777344 -3.32175781 13.28976563 -3.8125 14.25 C-6.96018499 20.45805556 -9.61029126 26.15588527 -11 33 C-11.33 33 -11.66 33 -12 33 C-13.28515338 24.00392636 -9.24701567 17.67562549 -5.08007812 10.01513672 C-3.31085351 6.71423709 -1.66130583 3.35628678 0 0 Z " fill="#D6D5D5" transform="translate(299,173)"/>
<path d="M0 0 C0.144375 0.61875 0.28875 1.2375 0.4375 1.875 C0.93152225 4.03258322 0.93152225 4.03258322 2 6 C2.61934117 11.32633403 1.23961722 14.86922594 -2 19 C-4.5 20.8125 -4.5 20.8125 -7 22 C-8.33429881 22.6647322 -9.66779756 23.33107632 -11 24 C-10.62488281 23.44054687 -10.24976563 22.88109375 -9.86328125 22.3046875 C-5.31113206 15.17260488 -2.60658977 8.00430663 0 0 Z " fill="#1E1D1D" transform="translate(296,165)"/>
<path d="M0 0 C0.66 0 1.32 0 2 0 C2.33 3.63 2.66 7.26 3 11 C4.32 11.33 5.64 11.66 7 12 C6 13 6 13 2.62109375 13.09765625 C1.22652923 13.09098369 -0.16801743 13.07902532 -1.5625 13.0625 C-2.62887695 13.05573242 -2.62887695 13.05573242 -3.71679688 13.04882812 C-5.47790013 13.03700864 -7.23896036 13.01907263 -9 13 C-9 12.67 -9 12.34 -9 12 C-7.02 12 -5.04 12 -3 12 C-3.0928125 10.700625 -3.0928125 10.700625 -3.1875 9.375 C-2.97544498 5.55800967 -1.87955693 3.28922464 0 0 Z " fill="#040505" transform="translate(308,195)"/>
<path d="M0 0 C0.66 0.33 1.32 0.66 2 1 C-0.02574107 3.70098809 -1.89167534 5.91545393 -4.5625 8 C-7.10239493 9.83816482 -7.10239493 9.83816482 -8.375 12.4375 C-10.52913775 15.83440953 -13.3518845 18.25885396 -17 20 C-17.99 19.67 -18.98 19.34 -20 19 C-16.12446439 14.03447 -11.80677489 10.0540158 -7 6 C-5.66608367 4.85484541 -4.33270803 3.70906055 -3 2.5625 C-2.01 1.716875 -1.02 0.87125 0 0 Z " fill="#1F1F1F" transform="translate(285,336)"/>
<path d="M0 0 C1.58246707 -0.08153933 3.16616273 -0.13943557 4.75 -0.1875 C6.07257813 -0.23970703 6.07257813 -0.23970703 7.421875 -0.29296875 C10.44671583 0.05076316 11.75583602 1.00227459 14 3 C7.33333333 6.33333333 0.66666667 9.66666667 -6 13 C-6.99 12.34 -7.98 11.68 -9 11 C-6.73103368 9.68417937 -4.45996813 8.37224764 -2.1875 7.0625 C-1.54490234 6.68931641 -0.90230469 6.31613281 -0.24023438 5.93164062 C2.48316424 4.36533365 5.01108122 2.99630626 8 2 C5.36 1.67 2.72 1.34 0 1 C0 0.67 0 0.34 0 0 Z " fill="#2E2F30" transform="translate(298,333)"/>
<path d="M0 0 C0.33 0.66 0.66 1.32 1 2 C1.66 2 2.32 2 3 2 C0.92350691 7.09684668 -3.33511639 11.17279781 -8 14 C-11.25 14.6875 -11.25 14.6875 -14 15 C-11.86410317 12.86410317 -9.72601371 10.733039 -7.5625 8.625 C-4.86322333 5.85988732 -2.43811569 2.99539928 0 0 Z " fill="#D4D4D6" transform="translate(191,182)"/>
<path d="M0 0 C2.36355971 2.90899657 4.64727784 5.86171265 6.875 8.875 C9.75391099 12.73802852 12.82792255 16.37476863 16 20 C15.01 20.33 14.02 20.66 13 21 C9.10491992 18.45703371 6.71969735 15.52624758 4.25 11.625 C3.65703125 10.70976562 3.0640625 9.79453125 2.453125 8.8515625 C0.92098226 5.84493831 0.37399632 3.33644083 0 0 Z " fill="#DFDFDE" transform="translate(259,127)"/>
<path d="M0 0 C3.09511984 3.09511984 2.29406478 6.33298409 2.32226562 10.56054688 C2.31904297 11.67494141 2.31582031 12.78933594 2.3125 13.9375 C2.32861328 15.04802734 2.34472656 16.15855469 2.36132812 17.30273438 C2.36197266 18.36685547 2.36261719 19.43097656 2.36328125 20.52734375 C2.36775269 21.99288696 2.36775269 21.99288696 2.37231445 23.48803711 C2 26 2 26 -1 29 C-0.67 19.43 -0.34 9.86 0 0 Z " fill="#F4F4F5" transform="translate(314,144)"/>
<path d="M0 0 C2.05436403 3.08154604 3.20114677 5.91403132 4.5 9.375 C5.96648876 13.26477202 7.44115503 17.14618882 9 21 C8.34 21 7.68 21 7 21 C6.67 21.66 6.34 22.32 6 23 C4.79374123 20.29870231 3.61006608 17.5908864 2.4375 14.875 C2.09525391 14.11445313 1.75300781 13.35390625 1.40039062 12.5703125 C-0.56218497 7.97114545 -1.46136542 4.99898771 0 0 Z " fill="#292829" transform="translate(247,370)"/>
<path d="M0 0 C0.33 0 0.66 0 1 0 C1.33 5.61 1.66 11.22 2 17 C2.33 17 2.66 17 3 17 C3 22.28 3 27.56 3 33 C0.525 33.495 0.525 33.495 -2 34 C-1.67 33.34 -1.34 32.68 -1 32 C-0.84391977 29.59439727 -0.74195542 27.21297228 -0.68359375 24.8046875 C-0.66281265 24.09724396 -0.64203156 23.38980042 -0.62062073 22.66091919 C-0.55518922 20.39904575 -0.49627026 18.13705538 -0.4375 15.875 C-0.39430867 14.34243578 -0.35069418 12.80988343 -0.30664062 11.27734375 C-0.19951445 7.51834927 -0.0982291 3.75923708 0 0 Z " fill="#2E2D2D" transform="translate(201,411)"/>
<path d="M0 0 C0.66 0 1.32 0 2 0 C1.1342843 2.66929007 0.27808762 4.67741836 -1.5625 6.8125 C-5.2211819 8.59493477 -9.0226474 8.88930243 -13 8 C-15.28125 5.97265625 -15.28125 5.97265625 -17 4 C-16.19175781 4.04640625 -15.38351562 4.0928125 -14.55078125 4.140625 C-7.86523827 4.52303992 -7.86523827 4.52303992 -1.875 2 C-0.946875 1.01 -0.946875 1.01 0 0 Z " fill="#302F31" transform="translate(289,167)"/>
<path d="M0 0 C1.0828125 0.99 1.0828125 0.99 2.1875 2 C7.10353587 5.38051862 13.31141418 4.30384138 19 4 C15.988455 7.14843341 14.05754825 8.19512758 9.6875 8.4375 C6.94970976 8.42425263 5.50995308 8.38012558 3.296875 6.73046875 C0 2.83674569 0 2.83674569 0 0 Z " fill="#1D1D1E" transform="translate(231,167)"/>
<path d="M0 0 C-0.33 0.33 -0.66 0.66 -1 1 C-0.01 1.66 0.98 2.32 2 3 C1.09636719 3.13277344 0.19273437 3.26554688 -0.73828125 3.40234375 C-2.50751953 3.66724609 -2.50751953 3.66724609 -4.3125 3.9375 C-6.07013672 4.19853516 -6.07013672 4.19853516 -7.86328125 4.46484375 C-11.01641403 4.92093031 -11.01641403 4.92093031 -14 6 C-15.20882096 8.00016466 -15.20882096 8.00016466 -16 10 C-16.33 7.69 -16.66 5.38 -17 3 C-14.54383175 2.30378686 -12.0855877 1.61775372 -9.625 0.9375 C-8.57699219 0.63875977 -8.57699219 0.63875977 -7.5078125 0.33398438 C-2.2265625 -1.11328125 -2.2265625 -1.11328125 0 0 Z " fill="#C2C2C2" transform="translate(240,154)"/>
<path d="M0 0 C0.70125 0.2475 1.4025 0.495 2.125 0.75 C-0.79540458 3.21409136 -3.81398897 5.45808681 -7 7.5625 C-7.66257812 8.00207031 -8.32515625 8.44164062 -9.0078125 8.89453125 C-10.875 9.75 -10.875 9.75 -13.875 8.75 C-5.18526786 -0.45089286 -5.18526786 -0.45089286 0 0 Z " fill="#E0DFE1" transform="translate(291.875,340.25)"/>
<path d="M0 0 C0.33 0 0.66 0 1 0 C1 2.97 1 5.94 1 9 C1.94875 8.95875 2.8975 8.9175 3.875 8.875 C7 9 7 9 9 11 C6.03 10.505 6.03 10.505 3 10 C3 12.64 3 15.28 3 18 C2.34 16.68 1.68 15.36 1 14 C0.67 17.63 0.34 21.26 0 25 C-0.33 25 -0.66 25 -1 25 C-1.13605482 16.60995285 -0.75475351 8.35619957 0 0 Z " fill="#3F3E3F" transform="translate(359,297)"/>
<path d="M0 0 C0.33 0 0.66 0 1 0 C2.51708428 13.6332574 2.51708428 13.6332574 0 20 C0.99 20.33 1.98 20.66 3 21 C3 23.31 3 25.62 3 28 C2.67 28 2.34 28 2 28 C2 26.35 2 24.7 2 23 C1.34 23 0.68 23 0 23 C-0.33 23.66 -0.66 24.32 -1 25 C-1.86310633 20.87626978 -1.83413092 18.0779734 -1 14 C-0.78301513 11.56494763 -0.59709255 9.12698616 -0.4375 6.6875 C-0.35371094 5.43324219 -0.26992188 4.17898437 -0.18359375 2.88671875 C-0.12300781 1.93410156 -0.06242187 0.98148438 0 0 Z " fill="#C4C4C4" transform="translate(308,172)"/>
<path d="M0 0 C4.16741523 1.39161902 6.79416663 3.33207679 10 6.3125 C10.86367188 7.11171875 11.72734375 7.9109375 12.6171875 8.734375 C15.12338037 11.11731248 17.59519277 13.51503253 20 16 C19.34 17.32 18.68 18.64 18 20 C17.67128906 19.443125 17.34257812 18.88625 17.00390625 18.3125 C13.62546707 12.89234825 9.93949404 8.83004163 5.05078125 4.7265625 C3.26658457 3.22443882 1.61930572 1.6758529 0 0 Z " fill="#BEBEBE" transform="translate(286,98)"/>
<path d="M0 0 C0.556875 0.226875 1.11375 0.45375 1.6875 0.6875 C1.0275 2.3375 0.3675 3.9875 -0.3125 5.6875 C-4.7675 6.1825 -4.7675 6.1825 -9.3125 6.6875 C-7.20878268 2.48006537 -5.11564163 -0.69130292 0 0 Z " fill="#1A1A1A" transform="translate(247.3125,366.3125)"/>
<path d="M0 0 C1.958964 0.30852185 3.91715713 0.6219418 5.875 0.9375 C6.96554688 1.11152344 8.05609375 1.28554687 9.1796875 1.46484375 C12 2 12 2 14 3 C14 3.99 14 4.98 14 6 C6.23214286 6.66964286 6.23214286 6.66964286 2.5 3.5625 C0 1 0 1 0 0 Z " fill="#B7B7B8" transform="translate(170,180)"/>
<path d="M0 0 C1.078125 1.828125 1.078125 1.828125 2 4 C1.07470849 6.03564133 0.06011943 8.03120677 -1 10 C-1.79857914 12.64917872 -2.39416447 15.29704147 -3 18 C-3.33 18 -3.66 18 -4 18 C-4.45164525 10.88658735 -3.32797915 6.28453206 0 0 Z " fill="#C4C4C5" transform="translate(291,188)"/>
<path d="M0 0 C1.32 0.33 2.64 0.66 4 1 C3 7 2 13 1 19 C0.67 19 0.34 19 0 19 C0 12.73 0 6.46 0 0 Z " fill="#252424" transform="translate(201,133)"/>
<path d="M0 0 C0.59167969 0.08378906 1.18335938 0.16757813 1.79296875 0.25390625 C6.09939457 0.80889424 9.75552644 1.23226652 14 0 C13 3 13 3 11.375 4.25 C7.92654257 5.33898656 5.46821241 4.89916618 2 4 C0.7890625 1.9453125 0.7890625 1.9453125 0 0 Z " fill="#626163" transform="translate(254,186)"/>
<path d="M0 0 C2.44989101 3.74235319 2.23086143 7.44225419 2.125 11.75 C2.11597656 12.44738281 2.10695312 13.14476562 2.09765625 13.86328125 C2.07419888 15.57566958 2.03833104 17.28788004 2 19 C1.67 19 1.34 19 1 19 C0.67 16.69 0.34 14.38 0 12 C-0.99 12.495 -0.99 12.495 -2 13 C-1.48041715 8.62065881 -0.94324258 4.31196609 0 0 Z " fill="#2E2F2F" transform="translate(199,166)"/>
<path d="M0 0 C0.79921875 0.00902344 1.5984375 0.01804688 2.421875 0.02734375 C3.02515625 0.03894531 3.6284375 0.05054688 4.25 0.0625 C4.25 1.0525 4.25 2.0425 4.25 3.0625 C-0.7 3.0625 -5.65 3.0625 -10.75 3.0625 C-7.55037281 -0.13712719 -4.37969494 -0.06440728 0 0 Z " fill="#2A2A2B" transform="translate(239.75,156.9375)"/>
<path d="M0 0 C1.051875 0.61875 2.10375 1.2375 3.1875 1.875 C6.05015677 3.51579108 8.89207246 4.86984453 12 6 C11.01 6.495 11.01 6.495 10 7 C9.34 6.67 8.68 6.34 8 6 C8 6.66 8 7.32 8 8 C4.51460083 7.35455571 1.97180943 5.89865603 -1 4 C-0.67 2.68 -0.34 1.36 0 0 Z " fill="#CECECE" transform="translate(274,145)"/>
<path d="M0 0 C0.66 0.33 1.32 0.66 2 1 C2 1.66 2 2.32 2 3 C-0.265625 4.62109375 -0.265625 4.62109375 -3.25 6.4375 C-6.62029686 8.50158392 -9.88019387 10.57100809 -13 13 C-13.66 12.67 -14.32 12.34 -15 12 C-10 8 -5 4 0 0 Z " fill="#414244" transform="translate(275,353)"/>
<path d="M0 0 C0.33 0 0.66 0 1 0 C2.88610478 15.74487472 2.88610478 15.74487472 -2 23 C-3.48354838 20.03290323 -2.29263204 17.81931377 -1.546875 14.73046875 C-0.57361799 9.87113552 -0.31755718 4.93884988 0 0 Z " fill="#E0E0E1" transform="translate(201,173)"/>
<path d="M0 0 C3.80666984 1.44390925 5.26602582 3.34952803 7 7 C6.67 7.66 6.34 8.32 6 9 C5.34 8.67 4.68 8.34 4 8 C4.33 10.31 4.66 12.62 5 15 C2.49639008 10.37795091 0 5.30049345 0 0 Z " fill="#D9D9D9" transform="translate(300,158)"/>
<path d="M0 0 C0.66 0 1.32 0 2 0 C2.06058594 0.73605469 2.12117187 1.47210938 2.18359375 2.23046875 C2.26738281 3.20628906 2.35117188 4.18210938 2.4375 5.1875 C2.51871094 6.15042969 2.59992188 7.11335937 2.68359375 8.10546875 C2.97666151 10.78649602 3.42703754 13.3662986 4 16 C3.01 16 2.02 16 1 16 C-0.14077657 12.57767028 -0.09815117 9.91326783 -0.0625 6.3125 C-0.05347656 5.13300781 -0.04445312 3.95351562 -0.03515625 2.73828125 C-0.02355469 1.83464844 -0.01195312 0.93101562 0 0 Z " fill="#C3C2C4" transform="translate(215,158)"/>
<path d="M0 0 C0.33 0 0.66 0 1 0 C1.144375 1.0725 1.28875 2.145 1.4375 3.25 C1.85984043 6.73808672 1.85984043 6.73808672 2.625 8.96875 C3.09761814 11.52876494 2.55564865 12.86644324 1.5625 15.25 C1.27503906 15.95640625 0.98757812 16.6628125 0.69140625 17.390625 C0.46324219 17.92171875 0.23507813 18.4528125 0 19 C-0.33 19 -0.66 19 -1 19 C-1.02690104 16.20826945 -1.04679053 13.41679652 -1.0625 10.625 C-1.07087891 9.8309375 -1.07925781 9.036875 -1.08789062 8.21875 C-1.11328125 2.2265625 -1.11328125 2.2265625 0 0 Z " fill="#949595" transform="translate(209,137)"/>
<path d="M0 0 C2 2 2 2 2.25 4.4375 C2 7 2 7 0 10 C-0.99 10 -1.98 10 -3 10 C-3 7.03 -3 4.06 -3 1 C-2.67 1.66 -2.34 2.32 -2 3 C-1.34 3 -0.68 3 0 3 C0 2.01 0 1.02 0 0 Z " fill="#4E4E4E" transform="translate(226,196)"/>
<path d="M0 0 C0.66 0 1.32 0 2 0 C2.02721176 1.89575251 2.04649136 3.79161979 2.0625 5.6875 C2.07410156 6.74324219 2.08570313 7.79898438 2.09765625 8.88671875 C2.00865425 11.72410262 1.64939838 14.2438919 1 17 C0.34 16.01 -0.32 15.02 -1 14 C-1.66 14 -2.32 14 -3 14 C-2.7834375 13.40832031 -2.566875 12.81664062 -2.34375 12.20703125 C-0.22239206 6.26339098 -0.22239206 6.26339098 0 0 Z " fill="#2B2B2C" transform="translate(299,172)"/>
<path d="M0 0 C0.33 0 0.66 0 1 0 C1.33884948 4.23561851 1.19968258 6.60776636 -0.75 10.4375 C-1.4925 11.283125 -2.235 12.12875 -3 13 C-4.32 13 -5.64 13 -7 13 C-6 10 -6 10 -4.0625 8.1875 C-1.63463895 5.61249585 -0.92191735 3.38036363 0 0 Z " fill="#2E2F2F" transform="translate(258,142)"/>
<path d="M0 0 C0.66 0.33 1.32 0.66 2 1 C0.44499019 4.81684226 -2.03595495 7.19195732 -5 10 C-5.66 9.67 -6.32 9.34 -7 9 C-6.67 8.34 -6.34 7.68 -6 7 C-6.66 6.67 -7.32 6.34 -8 6 C-5.36 4.02 -2.72 2.04 0 0 Z " fill="#CDCECE" transform="translate(264,358)"/>
<path d="M0 0 C2.5654594 2.5654594 2.54046087 4.47686668 3 8 C1.68 8 0.36 8 -1 8 C-3 5 -3 5 -3 1 C-2.01 0.67 -1.02 0.34 0 0 Z " fill="#5F5F5F" transform="translate(222,159)"/>
<path d="M0 0 C0.66 0.33 1.32 0.66 2 1 C-3.94 6.445 -3.94 6.445 -10 12 C-10.99 11.34 -11.98 10.68 -13 10 C-11.3970551 8.70681744 -9.79259858 7.41550844 -8.1875 6.125 C-7.29417969 5.40570313 -6.40085938 4.68640625 -5.48046875 3.9453125 C-3 2 -3 2 0 0 Z " fill="#C2C2C3" transform="translate(223,99)"/>
<path d="M0 0 C0.33 0 0.66 0 1 0 C1 4.62 1 9.24 1 14 C0.01 14.33 -0.98 14.66 -2 15 C-1.85973717 12.68715544 -1.71264442 10.37472409 -1.5625 8.0625 C-1.48128906 6.77472656 -1.40007812 5.48695313 -1.31640625 4.16015625 C-1 1 -1 1 0 0 Z " fill="#0B0A0B" transform="translate(360,310)"/>
<path d="M0 0 C0.33 0 0.66 0 1 0 C1.66 3.96 2.32 7.92 3 12 C2.01 12.33 1.02 12.66 0 13 C-1.29721449 9.10835652 -1.13033993 6.10570774 -1 2 C-0.67 1.34 -0.34 0.68 0 0 Z " fill="#E2E0E0" transform="translate(195,383)"/>
<path d="M0 0 C2.58548628 2.58548628 2.97641847 4.29538385 3.09765625 7.91796875 C3.08605469 8.99691406 3.07445312 10.07585937 3.0625 11.1875 C3.05347656 12.27417969 3.04445312 13.36085937 3.03515625 14.48046875 C3.02355469 15.31191406 3.01195312 16.14335937 3 17 C2.67 17 2.34 17 2 17 C-1.2972561 2.5945122 -1.2972561 2.5945122 0 0 Z " fill="#D0D0D0" transform="translate(226,188)"/>
<path d="M0 0 C2.42472438 2.51822275 2.99254989 3.67533206 3.07421875 7.234375 C2.94660156 8.39453125 2.81898438 9.5546875 2.6875 10.75 C2.56761719 11.92046875 2.44773437 13.0909375 2.32421875 14.296875 C2.21722656 15.18890625 2.11023438 16.0809375 2 17 C1.67 17 1.34 17 1 17 C0.855625 16.0925 0.71125 15.185 0.5625 14.25 C0.11090045 11.18884163 0.11090045 11.18884163 -0.625 9.0625 C-1.19246214 5.94145822 -0.53615879 3.09780633 0 0 Z " fill="#D2D2D2" transform="translate(312,168)"/>
<path d="M0 0 C0 0.99 0 1.98 0 3 C-4.67201205 4.20568053 -9.21496292 4.09382426 -14 4 C-11.37350692 2.24900461 -9.38191413 1.30690675 -6.4375 0.3125 C-5.65246094 0.04050781 -4.86742187 -0.23148438 -4.05859375 -0.51171875 C-2 -1 -2 -1 0 0 Z " fill="#B3B3B4" transform="translate(226,152)"/>
<path d="M0 0 C1.11346788 2.80033839 1.03510273 3.90143703 0.00390625 6.796875 C-0.47175781 7.77140625 -0.94742188 8.7459375 -1.4375 9.75 C-1.91058594 10.73484375 -2.38367188 11.7196875 -2.87109375 12.734375 C-3.24363281 13.48203125 -3.61617187 14.2296875 -4 15 C-4.99 14.34 -5.98 13.68 -7 13 C-6.66226563 12.48050781 -6.32453125 11.96101562 -5.9765625 11.42578125 C-3.60108299 7.71151993 -1.44237185 4.19599085 0 0 Z " fill="#BFBFBF" transform="translate(253,122)"/>
<path d="M0 0 C0.33 0 0.66 0 1 0 C1.06058594 0.73605469 1.12117188 1.47210938 1.18359375 2.23046875 C1.26738281 3.20628906 1.35117187 4.18210938 1.4375 5.1875 C1.51871094 6.15042969 1.59992188 7.11335937 1.68359375 8.10546875 C1.97666151 10.78649602 2.42703754 13.3662986 3 16 C1.68 16 0.36 16 -1 16 C-0.67 10.72 -0.34 5.44 0 0 Z " fill="#C6C6C6" transform="translate(312,190)"/>
<path d="M0 0 C1.58246707 -0.08153933 3.16616273 -0.13943557 4.75 -0.1875 C6.07257813 -0.23970703 6.07257813 -0.23970703 7.421875 -0.29296875 C10.44671583 0.05076316 11.75583602 1.00227459 14 3 C9.375 5.125 9.375 5.125 6 4 C6.66 3.34 7.32 2.68 8 2 C5.36 1.67 2.72 1.34 0 1 C0 0.67 0 0.34 0 0 Z " fill="#2A2B2D" transform="translate(298,333)"/>
<path d="M0 0 C1.70884005 1.62339805 3.37446717 3.29319053 5 5 C5 5.66 5 6.32 5 7 C3.02 7 1.04 7 -1 7 C-0.67 4.69 -0.34 2.38 0 0 Z " fill="#CDCDCE" transform="translate(242,199)"/>
<path d="M0 0 C0.66 0 1.32 0 2 0 C2.33 2.97 2.66 5.94 3 9 C2.67 8.01 2.34 7.02 2 6 C0.35 6.66 -1.3 7.32 -3 8 C-1.125 2.25 -1.125 2.25 0 0 Z " fill="#3A3839" transform="translate(308,195)"/>
<path d="M0 0 C0.33 0 0.66 0 1 0 C1 1.98 1 3.96 1 6 C1.66 6 2.32 6 3 6 C2.67 8.31 2.34 10.62 2 13 C1.01 12.67 0.02 12.34 -1 12 C-1.14285714 3.42857143 -1.14285714 3.42857143 0 0 Z " fill="#CDCDCD" transform="translate(203,140)"/>
<path d="M0 0 C3 1.8125 3 1.8125 6 4 C6 4.99 6 5.98 6 7 C2.20411134 6.45773019 0.52788007 4.79872437 -2 2 C-1.34 2 -0.68 2 0 2 C0 1.34 0 0.68 0 0 Z " fill="#232122" transform="translate(171,326)"/>
<path d="M0 0 C0.33 0 0.66 0 1 0 C1.33 4.95 1.66 9.9 2 15 C0.68 15 -0.64 15 -2 15 C-1.34 10.05 -0.68 5.1 0 0 Z " fill="#B5B5B8" transform="translate(205,191)"/>
<path d="M0 0 C-1.33250791 3.5875213 -2.830717 6.8364623 -5 10 C-5.66 10 -6.32 10 -7 10 C-4.54716981 0 -4.54716981 0 0 0 Z " fill="#E5E4E5" transform="translate(212,110)"/>
<path d="M0 0 C1.32 0.33 2.64 0.66 4 1 C4.125 4.375 4.125 4.375 4 8 C3.34 8.66 2.68 9.32 2 10 C1.34 6.7 0.68 3.4 0 0 Z " fill="#1A1918" transform="translate(195,382)"/>
<path d="M0 0 C-2.68841859 2.25245881 -4.64641875 3.88213958 -8 5 C-7.625 2.5625 -7.625 2.5625 -7 0 C-4.3333581 -1.33332095 -2.83319697 -0.67102033 0 0 Z " fill="#D7D7D9" transform="translate(294,341)"/>
<path d="M0 0 C0.66 0.33 1.32 0.66 2 1 C1.75 2.875 1.75 2.875 1 5 C-1.0625 6.25 -1.0625 6.25 -3 7 C-3.99 6.34 -4.98 5.68 -6 5 C-4.02 3.35 -2.04 1.7 0 0 Z " fill="#2A2B2D" transform="translate(265,353)"/>
<path d="M0 0 C0.33 0 0.66 0 1 0 C0.88557539 1.60495567 0.75805306 3.20898119 0.625 4.8125 C0.55539062 5.70582031 0.48578125 6.59914062 0.4140625 7.51953125 C0 10 0 10 -2 13 C-2.05391993 11.20866022 -2.09275571 9.41686101 -2.125 7.625 C-2.14820313 6.62726563 -2.17140625 5.62953125 -2.1953125 4.6015625 C-2 2 -2 2 0 0 Z " fill="#3D3D3D" transform="translate(311,170)"/>
<path d="M0 0 C2.97 0 5.94 0 9 0 C8.67 0.66 8.34 1.32 8 2 C7.195625 2.12375 6.39125 2.2475 5.5625 2.375 C2.84016601 2.72567164 2.84016601 2.72567164 1.6875 5.0625 C1.460625 5.701875 1.23375 6.34125 1 7 C0.67 4.69 0.34 2.38 0 0 Z " fill="#D9DADA" transform="translate(223,157)"/>
<path d="M0 0 C0.33 1.32 0.66 2.64 1 4 C-0.65 4.33 -2.3 4.66 -4 5 C-4 4.34 -4 3.68 -4 3 C-5.32 2.67 -6.64 2.34 -8 2 C-2.25 0 -2.25 0 0 0 Z " fill="#282929" transform="translate(239,370)"/>
<path d="M0 0 C0.99 0 1.98 0 3 0 C2.34 3.96 1.68 7.92 1 12 C0.67 12 0.34 12 0 12 C0 8.04 0 4.08 0 0 Z " fill="#100F10" transform="translate(217,157)"/>
<path d="M0 0 C-1.47692308 4.67692308 -1.47692308 4.67692308 -4.125 6.3125 C-5.053125 6.6528125 -5.053125 6.6528125 -6 7 C-5.37162381 3.35541809 -4.14650034 0 0 0 Z " fill="#E2E1E2" transform="translate(248,136)"/>
<path d="M0 0 C0.99 0.33 1.98 0.66 3 1 C3 3.64 3 6.28 3 9 C2.34 8.67 1.68 8.34 1 8 C0.40644386 5.35139573 0.25790731 2.70802678 0 0 Z " fill="#E9E9E9" transform="translate(310,126)"/>
<path d="M0 0 C2 2 2 2 2.25 5 C2 8 2 8 0 10 C0 8.68 0 7.36 0 6 C-0.66 6 -1.32 6 -2 6 C-2 5.01 -2 4.02 -2 3 C-1.34 3 -0.68 3 0 3 C0 2.01 0 1.02 0 0 Z " fill="#3D3D3D" transform="translate(258,125)"/>
<path d="M0 0 C1.65 0 3.3 0 5 0 C3.71937515 1.7074998 2.38232443 3.37373596 1 5 C0.34 5 -0.32 5 -1 5 C-0.67 3.35 -0.34 1.7 0 0 Z " fill="#1B1C1E" transform="translate(257,359)"/>
<path d="M0 0 C0.99 0.33 1.98 0.66 3 1 C0.47211993 3.79872437 -1.20411134 5.45773019 -5 6 C-3.86525052 2.59575156 -3.03188696 1.78346291 0 0 Z " fill="#2F2F30" transform="translate(281,349)"/>
<path d="M0 0 C2.3125 0.8125 2.3125 0.8125 4 2 C2.02 2.99 0.04 3.98 -2 5 C-2.99 4.34 -3.98 3.68 -5 3 C-2.75 1.375 -2.75 1.375 0 0 Z " fill="#343537" transform="translate(294,341)"/>
<path d="M0 0 C0.66 0.33 1.32 0.66 2 1 C2 1.66 2 2.32 2 3 C1.34 3 0.68 3 0 3 C0 3.66 0 4.32 0 5 C-0.66 5 -1.32 5 -2 5 C-2.33 5.99 -2.66 6.98 -3 8 C-3.33 7.01 -3.66 6.02 -4 5 C-2.0625 2.3125 -2.0625 2.3125 0 0 Z " fill="#DCD9DD" transform="translate(169,210)"/>
<path d="M0 0 C2.64 0 5.28 0 8 0 C7.01 1.485 7.01 1.485 6 3 C3.03 2.505 3.03 2.505 0 2 C0 1.34 0 0.68 0 0 Z " fill="#666768" transform="translate(257,193)"/>
<path d="M0 0 C0 0.99 0 1.98 0 3 C-4.455 3.495 -4.455 3.495 -9 4 C-9 3.34 -9 2.68 -9 2 C-2.25 0 -2.25 0 0 0 Z " fill="#E6E6E8" transform="translate(265,190)"/>
<path d="M0 0 C2.29013653 3.4352048 2.17842973 4.985331 2 9 C1.34 8.34 0.68 7.68 0 7 C-0.99 7.495 -0.99 7.495 -2 8 C-1.34 5.36 -0.68 2.72 0 0 Z " fill="#363635" transform="translate(203,185)"/>
<path d="M0 0 C-1 3 -1 3 -3 4 C-4.99960012 4.039992 -7.00047242 4.04346799 -9 4 C-6.10130984 1.70103884 -3.84906588 0 0 0 Z " fill="#4B4B4D" transform="translate(268,186)"/>
<path d="M0 0 C-1.33332095 3.99996286 -3.4957827 4.83782337 -7 7 C-7.66 6.67 -8.32 6.34 -9 6 C-7.8803014 4.99406757 -6.7540588 3.9954151 -5.625 3 C-4.68527344 2.1646875 -4.68527344 2.1646875 -3.7265625 1.3125 C-2 0 -2 0 0 0 Z " fill="#606162" transform="translate(269,359)"/>
<path d="M0 0 C2 4 2 4 1.25 7.1875 C0 10 0 10 -2 11 C-1.34 7.37 -0.68 3.74 0 0 Z " fill="#A1A2A2" transform="translate(200,185)"/>
<path d="M0 0 C-1 1.5625 -1 1.5625 -3 3 C-5.76614782 2.96726452 -8.26030547 2.49404328 -11 2 C-11 1.67 -11 1.34 -11 1 C-7.27569643 0.30710631 -3.78916254 -0.11144596 0 0 Z " fill="#3A3C3B" transform="translate(250,171)"/>
<path d="M0 0 C2.31 0.33 4.62 0.66 7 1 C7 1.33 7 1.66 7 2 C3.7 2.66 0.4 3.32 -3 4 C-2.01 2.68 -1.02 1.36 0 0 Z " fill="#38383A" transform="translate(275,159)"/>
<path d="M0 0 C1.875 0.25 1.875 0.25 4 1 C5.25 3.0625 5.25 3.0625 6 5 C4.125 4.75 4.125 4.75 2 4 C0.75 1.9375 0.75 1.9375 0 0 Z " fill="#EFEFF0" transform="translate(269,143)"/>
<path d="M0 0 C2.25245881 2.68841859 3.88213958 4.64641875 5 8 C4.34 8.66 3.68 9.32 3 10 C0 3.375 0 3.375 0 0 Z " fill="#C8C8C8" transform="translate(259,127)"/>
</svg>
